<?xml version="1.0" encoding="UTF-8"?>
<svg version="1.1" xmlns="http://www.w3.org/2000/svg" width="500" height="500">
<path d="M0 0 C0 0.66 0 1.32 0 2 C0.5878125 2.25523437 1.175625 2.51046875 1.78125 2.7734375 C9.27049629 6.91361943 13.63421575 15.31326319 15.94140625 23.23046875 C19.27333828 36.93173184 17.498321 47.6766218 10.8515625 60.15625 C9.8125 61.8125 9.8125 61.8125 8 64 C7.34 64 6.68 64 6 64 C6 64.66 6 65.32 6 66 C5.34 66 4.68 66 4 66 C4 66.66 4 67.32 4 68 C-5.94312856 75.71289412 -16.38960617 79.47612059 -29 79 C-36.53030756 77.86983094 -43.47216539 75.96700282 -50 72 C-53.17742605 71.9041582 -53.17742605 71.9041582 -56 73 C-57.25827123 74.84982472 -57.25827123 74.84982472 -58 77 C-59.3125 78.8125 -59.3125 78.8125 -61 80 C-63.4375 80.0625 -63.4375 80.0625 -66 79 C-68.3125 75.9375 -68.3125 75.9375 -70 73 C-69.27683594 72.20335937 -69.27683594 72.20335937 -68.5390625 71.390625 C-67.90742188 70.68421875 -67.27578125 69.9778125 -66.625 69.25 C-65.68527344 68.20585937 -65.68527344 68.20585937 -64.7265625 67.140625 C-63.0754441 65.09353703 -61.81142123 63.5039563 -61 61 C-61.74895891 59.08546143 -61.74895891 59.08546143 -63.1875 57.3125 C-69.7796867 47.46024283 -70.39482006 36.63626087 -68.53125 25.09765625 C-66.89142028 18.91901213 -63.87993108 13.0795755 -60 8 C-59.34 8 -58.68 8 -58 8 C-57.76667969 7.4225 -57.53335937 6.845 -57.29296875 6.25 C-53.61125868 -0.15684291 -46.1573536 -3.93569038 -39.27148438 -5.98608398 C-24.80166027 -9.7820685 -12.9907714 -7.27138311 0 0 Z M-43 6 C-44.32959344 6.67409458 -45.66196391 7.34282298 -47 8 C-47 8.66 -47 9.32 -47 10 C-47.59554688 10.23976562 -48.19109375 10.47953125 -48.8046875 10.7265625 C-51.45245448 12.2624558 -52.4925061 13.80232637 -54.125 16.375 C-54.87136719 17.53128906 -54.87136719 17.53128906 -55.6328125 18.7109375 C-60.93289054 27.58478245 -61.05406106 37.08232832 -58.64453125 46.98046875 C-57.80946469 49.59701064 -56.5855675 51.76579124 -55 54 C-51.13914394 52.42705864 -48.55777661 50.28856993 -46 47 C-46.08864563 44.13482526 -46.08864563 44.13482526 -46.6015625 42.1796875 C-47.45086754 37.53348935 -47.06958274 32.70843221 -47 28 C-43.7 28 -40.4 28 -37 28 C-36.34 26.35 -35.68 24.7 -35 23 C-33.68 23 -32.36 23 -31 23 C-31.33 21.68 -31.66 20.36 -32 19 C-33.32 19 -34.64 19 -36 19 C-34.66445565 15.02119078 -33.01381696 12.65301487 -30 9.75 C-29.29875 9.06421875 -28.5975 8.3784375 -27.875 7.671875 C-26 6 -26 6 -24 5 C-23.814375 5.66 -23.62875 6.32 -23.4375 7 C-21.37066625 11.31339218 -18.23462189 14.51456519 -15 18 C-17.31 18.33 -19.62 18.66 -22 19 C-22 19.99 -22 20.98 -22 22 C-21.195625 22.2475 -20.39125 22.495 -19.5625 22.75 C-18.716875 23.1625 -17.87125 23.575 -17 24 C-16.505 25.98 -16.505 25.98 -16 28 C-12.37 28.33 -8.74 28.66 -5 29 C-5 37.91 -5 46.82 -5 56 C-14.9 56.33 -24.8 56.66 -35 57 C-35.33 56.01 -35.66 55.02 -36 54 C-36.825 54.94875 -37.65 55.8975 -38.5 56.875 C-38.9640625 57.40867187 -39.428125 57.94234375 -39.90625 58.4921875 C-41.19572458 59.95936421 -41.19572458 59.95936421 -41 62 C-41.66 62 -42.32 62 -43 62 C-43.33 62.99 -43.66 63.98 -44 65 C-35.60490999 69.97486816 -26.52699372 70.40254928 -17 69 C-8.33270221 66.32805526 -1.1866978 61.30838954 3.49609375 53.5078125 C7.92738241 45.04693839 9.49247475 36.2600043 7.5390625 26.7578125 C4.21164462 17.01043542 -2.07083318 9.43333341 -11.1875 4.75 C-21.1584497 -0.04864246 -33.49601666 0.33893166 -43 6 Z M-35 30 C-34 32 -34 32 -34 32 Z M-24 31 C-23 35 -23 35 -23 35 Z M-37 34 C-36 36 -36 36 -36 36 Z M-26 36 C-26.33 37.65 -26.66 39.3 -27 41 C-26.34 41 -25.68 41 -25 41 C-24.67 39.35 -24.34 37.7 -24 36 C-24.66 36 -25.32 36 -26 36 Z M-28 41 C-28.66 42.98 -29.32 44.96 -30 47 C-29.01 46.67 -28.02 46.34 -27 46 C-27 44.35 -27 42.7 -27 41 C-27.33 41 -27.66 41 -28 41 Z " fill="#60C0C7" transform="translate(377,205)"/>
<path d="M0 0 C0 0.66 0 1.32 0 2 C0.5878125 2.25523437 1.175625 2.51046875 1.78125 2.7734375 C9.27049629 6.91361943 13.63421575 15.31326319 15.94140625 23.23046875 C19.06565267 36.07770627 17.86046484 46.0758172 12 58 C10.3359375 59.875 10.3359375 59.875 9 61 C9 58.36 9 55.72 9 53 C5.66462511 54.11179163 4.36292656 55.47411298 2 58 C1.01 57.505 1.01 57.505 0 57 C0.33773437 56.5153125 0.67546875 56.030625 1.0234375 55.53125 C6.66677692 47.04993065 7.85914758 39.07793744 7 29 C5.47428624 21.67913816 0.92326635 14.84633829 -4.375 9.6875 C-13.88915375 3.57125831 -22.78518741 1.83143581 -34 3 C-36.64107584 3.77886955 -38.80809488 4.69091694 -41.203125 6.02734375 C-43.11619199 7.06289523 -44.8787954 7.5541716 -47 8 C-47 8.66 -47 9.32 -47 10 C-48.66215268 11.33895632 -50.32963607 12.67130142 -52 14 C-53.37368345 15.63356951 -54.71937515 17.2925002 -56 19 C-56.33 17.35 -56.66 15.7 -57 14 C-58.65 13.67 -60.3 13.34 -62 13 C-61.34 11.35 -60.68 9.7 -60 8 C-59.34 8 -58.68 8 -58 8 C-57.76667969 7.4225 -57.53335937 6.845 -57.29296875 6.25 C-53.61125868 -0.15684291 -46.1573536 -3.93569038 -39.27148438 -5.98608398 C-24.80166027 -9.7820685 -12.9907714 -7.27138311 0 0 Z " fill="#83D2BF" transform="translate(377,205)"/>
<path d="M0 0 C0.33 0.99 0.66 1.98 1 3 C1.66 3 2.32 3 3 3 C6.97095506 7.29292439 10.01091632 11.98851502 13 17 C12.97679687 16.10796875 12.95359375 15.2159375 12.9296875 14.296875 C12.90261719 12.54117188 12.90261719 12.54117188 12.875 10.75 C12.85179687 9.58984375 12.82859375 8.4296875 12.8046875 7.234375 C12.9896051 4.17213954 13.39176977 2.55797249 15 0 C17.64 0 20.28 0 23 0 C24.40027356 23.58238484 24.40027356 23.58238484 23 35 C14.94311377 35.61976048 14.94311377 35.61976048 11.8125 33.5625 C9.57836651 30.40389748 7.43358896 27.19669133 5.3671875 23.92578125 C4.13632885 21.87214998 4.13632885 21.87214998 2 21 C1.67 25.95 1.34 30.9 1 36 C-2.3 35.67 -5.6 35.34 -9 35 C-9 23.78 -9 12.56 -9 1 C-6.04335481 -0.4783226 -3.25770263 -0.06032783 0 0 Z " fill="#1E3A63" transform="translate(130,230)"/>
<path d="M0 0 C3.17625 -0.04125 6.3525 -0.0825 9.625 -0.125 C10.6145166 -0.14320801 11.6040332 -0.16141602 12.62353516 -0.18017578 C17.4552393 -0.21045329 21.52434934 -0.05921955 26 2 C29.10982795 5.36197616 30.8723254 7.67218417 31.3125 12.25 C30.87792077 17.46495082 28.63177212 20.36822788 25 24 C25.8971875 24.7734375 25.8971875 24.7734375 26.8125 25.5625 C29.5073536 28.56533687 30.55720619 31.24873609 32 35 C21.37075352 36.06801041 21.37075352 36.06801041 18.08984375 33.51171875 C16.31897455 31.01804579 15 29.10630411 15 26 C13.68 26.33 12.36 26.66 11 27 C10.67 29.64 10.34 32.28 10 35 C3.375 36.125 3.375 36.125 0 35 C0 23.45 0 11.9 0 0 Z M10 10 C10 11.98 10 13.96 10 16 C11.45792884 16.05399736 12.91642712 16.09279177 14.375 16.125 C15.59316406 16.15980469 15.59316406 16.15980469 16.8359375 16.1953125 C19.21342243 16.21370051 19.21342243 16.21370051 21 14 C20.59471099 11.21762345 20.59471099 11.21762345 19 9 C14.34911285 8.69476038 14.34911285 8.69476038 10 10 Z " fill="#18345A" transform="translate(274,230)"/>
<path d="M0 0 C17 0 17 0 24 2 C24.86625 2.185625 25.7325 2.37125 26.625 2.5625 C30.63267215 4.9881963 32.35922644 8.70305613 34 13 C35.1374062 18.71644668 33.96016154 23.87680681 31.38671875 29.05078125 C28.5093768 33.09527036 24.58817797 34.45013069 19.8671875 35.453125 C4.96549296 37.48274648 4.96549296 37.48274648 0 35 C0 23.45 0 11.9 0 0 Z M10 10 C9.92674832 12.86267567 9.90761795 15.700719 9.9375 18.5625 C9.94201172 19.36880859 9.94652344 20.17511719 9.95117188 21.00585938 C9.96299482 23.00393756 9.98093086 25.00197783 10 27 C15.48817441 27.25529981 15.48817441 27.25529981 20.375 24.875 C23.27575433 21.69798335 24 20.25923518 24 16 C23.17657468 13.68019054 23.17657468 13.68019054 22 12 C21.34 12 20.68 12 20 12 C20 11.34 20 10.68 20 10 C17.30891695 8.65445847 12.3130459 7.6869541 10 10 Z " fill="#28426A" transform="translate(205,230)"/>
<path d="M0 0 C6.6515625 -0.0309375 6.6515625 -0.0309375 13.4375 -0.0625 C14.83798584 -0.071604 16.23847168 -0.08070801 17.68139648 -0.09008789 C19.32217163 -0.09383423 19.32217163 -0.09383423 20.99609375 -0.09765625 C22.12200928 -0.10289307 23.2479248 -0.10812988 24.40795898 -0.11352539 C27 0 27 0 28 1 C28 3.64 28 6.28 28 9 C22.06 9 16.12 9 10 9 C10 10.65 10 12.3 10 14 C14.95 14 19.9 14 25 14 C25.33 16.97 25.66 19.94 26 23 C20.72 22.67 15.44 22.34 10 22 C10 23.65 10 25.3 10 27 C15.94 27 21.88 27 28 27 C28 29.64 28 32.28 28 35 C25.58360372 35.17172359 23.16701489 35.33740082 20.75 35.5 C20.08742188 35.54769531 19.42484375 35.59539062 18.7421875 35.64453125 C12.45370495 36.0598084 6.35089497 36 0 36 C0 24.12 0 12.24 0 0 Z " fill="#18355D" transform="translate(242,230)"/>
<path d="M0 0 C0.56203125 0.46792969 1.1240625 0.93585938 1.703125 1.41796875 C1.39375 2.18109375 1.084375 2.94421875 0.765625 3.73046875 C0.02418907 5.60586552 -0.65915717 7.50481527 -1.296875 9.41796875 C-1.998125 9.10859375 -2.699375 8.79921875 -3.421875 8.48046875 C-6.38624157 7.38494197 -9.17385608 6.85373883 -12.296875 6.41796875 C-12.626875 7.07796875 -12.956875 7.73796875 -13.296875 8.41796875 C-12.06710938 8.92457031 -12.06710938 8.92457031 -10.8125 9.44140625 C-9.73484375 9.88742188 -8.6571875 10.3334375 -7.546875 10.79296875 C-6.47953125 11.23382813 -5.4121875 11.6746875 -4.3125 12.12890625 C-3.31734375 12.55429688 -2.3221875 12.9796875 -1.296875 13.41796875 C-0.53117187 13.68222656 0.23453125 13.94648438 1.0234375 14.21875 C2.703125 15.41796875 2.703125 15.41796875 3.5234375 18.0625 C4.32808691 26.42879063 4.32808691 26.42879063 2.5234375 29.28515625 C-2.93109085 33.87130197 -8.55383534 33.83940873 -15.296875 33.41796875 C-19.45572721 32.39787292 -22.71020716 30.73875382 -26.296875 28.41796875 C-25.09306052 25.92435304 -23.84258778 23.73653792 -22.296875 21.41796875 C-17.44999308 22.1997239 -12.9202383 23.81641153 -8.296875 25.41796875 C-7.966875 24.09796875 -7.636875 22.77796875 -7.296875 21.41796875 C-8.41835937 21.12792969 -8.41835937 21.12792969 -9.5625 20.83203125 C-10.54734375 20.57164062 -11.5321875 20.31125 -12.546875 20.04296875 C-13.52140625 19.78773438 -14.4959375 19.5325 -15.5 19.26953125 C-19.81822624 17.95476404 -21.74695147 17.24285405 -24.296875 13.41796875 C-24.5625 11.04296875 -24.5625 11.04296875 -24.546875 8.41796875 C-24.55203125 7.55171875 -24.5571875 6.68546875 -24.5625 5.79296875 C-24.296875 3.41796875 -24.296875 3.41796875 -22.296875 0.41796875 C-21.636875 0.41796875 -20.976875 0.41796875 -20.296875 0.41796875 C-20.296875 -0.24203125 -20.296875 -0.90203125 -20.296875 -1.58203125 C-13.30895491 -3.91133795 -6.3386889 -4.36593368 0 0 Z " fill="#183861" transform="translate(182.296875,232.58203125)"/>
<path d="M0 0 C0.8971875 0.5259375 0.8971875 0.5259375 1.8125 1.0625 C1.98073707 5.4366638 1.90701417 8.24309182 -0.1875 12.0625 C-2.64306375 22.62142412 -1.17737762 32.53636999 3.8125 42.0625 C3.8125 43.0525 3.8125 44.0425 3.8125 45.0625 C-0.0625 44.1875 -0.0625 44.1875 -1.1875 43.0625 C-1.14625 44.3 -1.105 45.5375 -1.0625 46.8125 C-1.05091709 50.07887962 -1.3306298 52.2771947 -3.1875 55.0625 C-4.1775 55.0625 -5.1675 55.0625 -6.1875 55.0625 C-8.00352517 59.60082753 -8.00352517 59.60082753 -7.1875 64.0625 C-5.2075 64.0625 -3.2275 64.0625 -1.1875 64.0625 C-1.8475 65.0525 -2.5075 66.0425 -3.1875 67.0625 C-5.4375 66.9375 -5.4375 66.9375 -8.1875 66.0625 C-10.5 63 -10.5 63 -12.1875 60.0625 C-11.70539063 59.53140625 -11.22328125 59.0003125 -10.7265625 58.453125 C-10.09492188 57.74671875 -9.46328125 57.0403125 -8.8125 56.3125 C-8.18601562 55.61640625 -7.55953125 54.9203125 -6.9140625 54.203125 C-5.2629441 52.15603703 -3.99892123 50.5664563 -3.1875 48.0625 C-3.93645891 46.14796143 -3.93645891 46.14796143 -5.375 44.375 C-11.94682696 34.55317119 -12.75858833 23.48438847 -10.61328125 11.984375 C-9.40037574 7.69749204 -7.93875706 3.61620703 -5.1875 0.0625 C-2.1875 -0.9375 -2.1875 -0.9375 0 0 Z " fill="#6ABCCA" transform="translate(319.1875,217.9375)"/>
<path d="M0 0 C0.66 0.28875 1.32 0.5775 2 0.875 C2.9075 1.225625 3.815 1.57625 4.75 1.9375 C5.86375 2.4015625 5.86375 2.4015625 7 2.875 C6.67 4.855 6.34 6.835 6 8.875 C5.34 8.875 4.68 8.875 4 8.875 C3.67 10.855 3.34 12.835 3 14.875 C2.34 14.875 1.68 14.875 1 14.875 C1.33 16.525 1.66 18.175 2 19.875 C2.33 19.545 2.66 19.215 3 18.875 C4.66617115 18.83436168 6.33388095 18.832279 8 18.875 C8 19.535 8 20.195 8 20.875 C8.99 21.205 9.98 21.535 11 21.875 C9 24.875 9 24.875 5.1875 25.75 C1.16392985 26.1414825 -0.59540509 25.02527047 -4 22.875 C-7.17742605 22.7791582 -7.17742605 22.7791582 -10 23.875 C-10.309375 24.535 -10.61875 25.195 -10.9375 25.875 C-11.288125 26.535 -11.63875 27.195 -12 27.875 C-15.625 28.625 -15.625 28.625 -19 28.875 C-20.1875 26.6875 -20.1875 26.6875 -21 23.875 C-19.8125 21.0625 -19.8125 21.0625 -18 18.875 C-17.01 18.875 -16.02 18.875 -15 18.875 C-13.99890485 15.56429162 -13.89643866 12.57415231 -13.9375 9.125 C-13.95103516 7.64773438 -13.95103516 7.64773438 -13.96484375 6.140625 C-13.97644531 5.39296875 -13.98804688 4.6453125 -14 3.875 C-13.34 5.195 -12.68 6.515 -12 7.875 C-11.01 7.875 -10.02 7.875 -9 7.875 C-8.6596875 7.00875 -8.6596875 7.00875 -8.3125 6.125 C-6.4379015 2.91140257 -3.9917898 -0.24948686 0 0 Z " fill="#4DB3CE" transform="translate(331,254.125)"/>
<path d="M0 0 C2.64 0 5.28 0 8 0 C9.40027356 23.58238484 9.40027356 23.58238484 8 35 C-0.05688623 35.61976048 -0.05688623 35.61976048 -3.1875 33.5625 C-3.785625 32.716875 -4.38375 31.87125 -5 31 C-5.51691406 30.28585937 -6.03382813 29.57171875 -6.56640625 28.8359375 C-11 22.51986659 -11 22.51986659 -11 19 C-11.66 19 -12.32 19 -13 19 C-13 18.01 -13 17.02 -13 16 C-12.34 16 -11.68 16 -11 16 C-11 16.66 -11 17.32 -11 18 C-10.34 18 -9.68 18 -9 18 C-8.67 17.01 -8.34 16.02 -8 15 C-6.0625 15.3125 -6.0625 15.3125 -4 16 C-3.67 16.99 -3.34 17.98 -3 19 C-2.01 19.33 -1.02 19.66 0 20 C-0.33 19.34 -0.66 18.68 -1 18 C-1.28354879 15.7144249 -1.50374421 13.42075419 -1.6875 11.125 C-1.79449219 9.89007813 -1.90148437 8.65515625 -2.01171875 7.3828125 C-2.00051498 4.14865862 -1.74143991 2.65552905 0 0 Z " fill="#1B3962" transform="translate(145,230)"/>
<path d="M0 0 C1.66666667 1.66666667 3.33333333 3.33333333 5 5 C5.33 5 5.66 5 6 5 C6.66 10.28 7.32 15.56 8 21 C-1.9 21 -11.8 21 -22 21 C-21.505 16.545 -21.505 16.545 -21 12 C-19.02 11.67 -17.04 11.34 -15 11 C-15 9.35 -15 7.7 -15 6 C-13.35 5.34 -11.7 4.68 -10 4 C-9.67 4.66 -9.34 5.32 -9 6 C-9.99 6 -10.98 6 -12 6 C-11.67 6.99 -11.34 7.98 -11 9 C-9.70414084 8.57507874 -8.4133956 8.13454118 -7.125 7.6875 C-6.04605469 7.32205078 -6.04605469 7.32205078 -4.9453125 6.94921875 C-2.66005095 6.03664453 -2.66005095 6.03664453 -1 3 C-1.99 3 -2.98 3 -4 3 C-4 2.34 -4 1.68 -4 1 C-2.125 0.375 -2.125 0.375 0 0 Z " fill="#59BCC1" transform="translate(365,240)"/>
<path d="M0 0 C4.78133212 2.3082293 7.26857181 3.84328563 9.125 8.9375 C13.379342 21.47144606 11.88884575 31.7864336 7.09765625 43.87109375 C5.98213667 46.03464596 4.81174737 47.39471957 3 49 C3 46.36 3 43.72 3 41 C-0.33537489 42.11179163 -1.63707344 43.47411298 -4 46 C-4.66 45.67 -5.32 45.34 -6 45 C-5.65066406 44.45730469 -5.30132812 43.91460937 -4.94140625 43.35546875 C-4.25884766 42.28232422 -4.25884766 42.28232422 -3.5625 41.1875 C-3.11003906 40.47980469 -2.65757812 39.77210938 -2.19140625 39.04296875 C-0.85913661 36.91865448 -0.85913661 36.91865448 0 34 C1.485 33.505 1.485 33.505 3 33 C2.505 31.515 2.505 31.515 2 30 C2.33 29.01 2.66 28.02 3 27 C3.22451458 24.77425665 3.40782878 22.54418481 3.5625 20.3125 C3.64628906 19.13300781 3.73007812 17.95351562 3.81640625 16.73828125 C3.87699219 15.83464844 3.93757813 14.93101562 4 14 C3.34 14 2.68 14 2 14 C2 12.35 2 10.7 2 9 C1.34 9 0.68 9 0 9 C-0.84454356 5.62182575 -1.10844919 3.32534757 0 0 Z " fill="#6DC7BC" transform="translate(383,217)"/>
<path d="M0 0 C0.56203125 0.46792969 1.1240625 0.93585938 1.703125 1.41796875 C1.39375 2.18109375 1.084375 2.94421875 0.765625 3.73046875 C0.02418907 5.60586552 -0.65915717 7.50481527 -1.296875 9.41796875 C-1.998125 9.10859375 -2.699375 8.79921875 -3.421875 8.48046875 C-6.38624157 7.38494197 -9.17385608 6.85373883 -12.296875 6.41796875 C-12.626875 7.40796875 -12.956875 8.39796875 -13.296875 9.41796875 C-12.801875 10.22234375 -12.306875 11.02671875 -11.796875 11.85546875 C-10.296875 14.41796875 -10.296875 14.41796875 -10.703125 16.578125 C-10.8990625 17.18527344 -11.095 17.79242188 -11.296875 18.41796875 C-15.5010779 18.23830196 -19.14519892 18.06403094 -22.859375 15.98046875 C-25.09186771 12.00080783 -24.93766639 7.88115529 -24.296875 3.41796875 C-23.636875 2.42796875 -22.976875 1.43796875 -22.296875 0.41796875 C-21.636875 0.41796875 -20.976875 0.41796875 -20.296875 0.41796875 C-20.296875 -0.24203125 -20.296875 -0.90203125 -20.296875 -1.58203125 C-13.30895491 -3.91133795 -6.3386889 -4.36593368 0 0 Z " fill="#173862" transform="translate(182.296875,232.58203125)"/>
<path d="M0 0 C0.81447532 4.27821968 1.12848798 8.32314695 1.1328125 12.67578125 C1.13410156 13.91521484 1.13539063 15.15464844 1.13671875 16.43164062 C1.13285156 17.71232422 1.12898437 18.99300781 1.125 20.3125 C1.12886719 21.61251953 1.13273438 22.91253906 1.13671875 24.25195312 C1.13542969 25.48494141 1.13414062 26.71792969 1.1328125 27.98828125 C1.13168457 29.11790283 1.13055664 30.24752441 1.12939453 31.41137695 C1 34 1 34 0 35 C-5.73611111 35.27314815 -5.73611111 35.27314815 -8 35 C-10 33 -10 33 -10.24291992 30.8203125 C-10.23881104 29.93085938 -10.23470215 29.04140625 -10.23046875 28.125 C-10.22853516 27.13886719 -10.22660156 26.15273438 -10.22460938 25.13671875 C-10.21236328 24.10160156 -10.20011719 23.06648438 -10.1875 22 C-10.18685547 20.99582031 -10.18621094 19.99164063 -10.18554688 18.95703125 C-10.10459376 5.05108421 -10.10459376 5.05108421 -9 0 C-5.93109813 -1.53445094 -3.29905734 -0.54984289 0 0 Z " fill="#274569" transform="translate(199,231)"/>
<path d="M0 0 C1.88332031 -0.03867187 1.88332031 -0.03867187 3.8046875 -0.078125 C7.125 0.25 7.125 0.25 8.984375 1.3359375 C10.67779824 4.17764088 11.02424275 6.86364956 11.5 10.125 C11.69335938 11.33929688 11.88671875 12.55359375 12.0859375 13.8046875 C12.13120153 17.796975 11.91444534 19.37538075 9.125 22.25 C6.22985061 22.82180705 3.90194328 23.08419939 1 23.125 C0.25878906 23.15851563 -0.48242188 23.19203125 -1.24609375 23.2265625 C-3.12115917 23.29512065 -4.99891168 23.27937946 -6.875 23.25 C-8.49700515 21.62799485 -8.0049075 19.82976969 -8.0078125 17.59375 C-8.00910156 16.65402344 -8.01039063 15.71429688 -8.01171875 14.74609375 C-8.00785156 13.75738281 -8.00398438 12.76867187 -8 11.75 C-8.00386719 10.76128906 -8.00773437 9.77257812 -8.01171875 8.75390625 C-8.01042969 7.81417969 -8.00914062 6.87445313 -8.0078125 5.90625 C-8.00668457 5.03806641 -8.00555664 4.16988281 -8.00439453 3.27539062 C-7.71419493 -1.2670544 -3.72059247 0.04565144 0 0 Z M-0.875 4.25 C-1.535 5.9 -2.195 7.55 -2.875 9.25 C1.26593698 9.45970559 1.26593698 9.45970559 5.125 8.25 C5.125 6.93 5.125 5.61 5.125 4.25 C3.145 4.25 1.165 4.25 -0.875 4.25 Z M-2.875 13.25 C-2.545 14.9 -2.215 16.55 -1.875 18.25 C0.765 18.25 3.405 18.25 6.125 18.25 C6.455 16.93 6.785 15.61 7.125 14.25 C3.825 13.92 0.525 13.59 -2.875 13.25 Z " fill="#545351" transform="translate(275.875,274.75)"/>
<path d="M0 0 C0.19800001 4.35375527 0.38152823 8.70800631 0.5625 13.0625 C0.61857422 14.29162109 0.67464844 15.52074219 0.73242188 16.78710938 C0.9701651 22.6672919 1.16023157 28.21603075 0 34 C-6.15234375 34.87890625 -6.15234375 34.87890625 -8 35 C-9 34 -9 34 -9.11352539 30.76538086 C-9.11336631 29.33185874 -9.10767407 27.89833088 -9.09765625 26.46484375 C-9.0962413 25.71159317 -9.09482635 24.95834259 -9.09336853 24.18226624 C-9.08775376 21.7673044 -9.07519883 19.35243399 -9.0625 16.9375 C-9.0574869 15.30403779 -9.05292366 13.67057414 -9.04882812 12.03710938 C-9.03777954 8.02470415 -9.02050506 4.01236759 -9 0 C-3.375 -1.125 -3.375 -1.125 0 0 Z " fill="#224067" transform="translate(115,231)"/>
<path d="M0 0 C-0.33 0.66 -0.66 1.32 -1 2 C-0.505 2.495 -0.505 2.495 0 3 C0.36162029 4.32594105 0.69728039 5.65938457 1 7 C-0.32064453 7.02126953 -0.32064453 7.02126953 -1.66796875 7.04296875 C-8.92198734 7.13734589 -8.92198734 7.13734589 -15.0625 10.5 C-15.701875 11.325 -16.34125 12.15 -17 13 C-19.3125 13.8125 -19.3125 13.8125 -21 14 C-21 14.66 -21 15.32 -21 16 C-22.66215268 17.33895632 -24.32963607 18.67130142 -26 20 C-27.37368345 21.63356951 -28.71937515 23.2925002 -30 25 C-30.33 23.35 -30.66 21.7 -31 20 C-32.65 19.67 -34.3 19.34 -36 19 C-35.34 17.35 -34.68 15.7 -34 14 C-33.34 14 -32.68 14 -32 14 C-31.77183594 13.42507812 -31.54367187 12.85015625 -31.30859375 12.2578125 C-28.19592694 6.88730081 -21.9018857 2.96468092 -16.109375 1.0390625 C-10.73879494 0.0039507 -5.45533354 -0.20586164 0 0 Z " fill="#6ECCB9" transform="translate(351,199)"/>
<path d="M0 0 C2.660625 -0.04125 5.32125 -0.0825 8.0625 -0.125 C8.8862915 -0.14320801 9.71008301 -0.16141602 10.55883789 -0.18017578 C16.93681419 -0.22752754 22.35624702 0.83949833 28 4 C26.35 4.33 24.7 4.66 23 5 C23 4.34 23 3.68 23 3 C22.34 3 21.68 3 21 3 C21.33 4.32 21.66 5.64 22 7 C21.34 7 20.68 7 20 7 C20 7.99 20 8.98 20 10 C17.03 10 14.06 10 11 10 C10.67 15.61 10.34 21.22 10 27 C12.97 26.67 15.94 26.34 19 26 C18.67 26.66 18.34 27.32 18 28 C15.69 28 13.38 28 11 28 C10.34 29.32 9.68 30.64 9 32 C8.01 30.68 7.02 29.36 6 28 C6.99 28 7.98 28 9 28 C9 22.72 9 17.44 9 12 C8.01 12 7.02 12 6 12 C5.67 12.66 5.34 13.32 5 14 C4.01 14 3.02 14 2 14 C2.01160156 14.95261719 2.02320313 15.90523437 2.03515625 16.88671875 C2.04417969 18.14097656 2.05320313 19.39523438 2.0625 20.6875 C2.07410156 21.92886719 2.08570313 23.17023438 2.09765625 24.44921875 C2.01478673 27.46235454 1.70839449 30.08275339 1 33 C0.67 33 0.34 33 0 33 C0 22.11 0 11.22 0 0 Z " fill="#3E5779" transform="translate(205,230)"/>
<path d="M0 0 C3.06137454 1.50285659 5.16842657 3.10288857 7 6 C7.56018564 9.41713239 7.42664534 12.573293 7 16 C6.34 16 5.68 16 5 16 C4.7525 16.598125 4.505 17.19625 4.25 17.8125 C2.77418403 20.39517795 1.53443329 21.45117966 -1 23 C-3.578125 23.29296875 -3.578125 23.29296875 -6.25 23.1875 C-7.14203125 23.16042969 -8.0340625 23.13335937 -8.953125 23.10546875 C-9.62859375 23.07066406 -10.3040625 23.03585937 -11 23 C-11 22.34 -11 21.68 -11 21 C-12.32 20.34 -13.64 19.68 -15 19 C-15 18.01 -15 17.02 -15 16 C-15.66 16 -16.32 16 -17 16 C-17.49303103 11.97357995 -17.86992855 8.4579358 -15.734375 4.87890625 C-10.8110616 -0.86894265 -7.4077516 -1.90622924 0 0 Z M-10.375 5.625 C-12.4753727 8.69477548 -12.53293835 10.34556561 -12 14 C-11.16666667 16.5 -11.16666667 16.5 -9 18 C-6.22572253 18.56641498 -3.77427747 18.56641498 -1 18 C1.6923481 15.81246717 1.93936827 14.41576045 2.4375 11 C2.21611612 7.94241941 2.21611612 7.94241941 0.375 5.625 C-3.51410622 2.96403258 -6.48589378 2.96403258 -10.375 5.625 Z " fill="#70716F" transform="translate(259,275)"/>
<path d="M0 0 C2.3125 2.0625 2.3125 2.0625 4 4 C0.54320988 6.09876543 0.54320988 6.09876543 -2.0625 5.625 C-3.0215625 5.315625 -3.0215625 5.315625 -4 5 C-4.99 5 -5.98 5 -7 5 C-4.31168909 8.32085466 -0.87808588 9.42003908 3 11 C4 12 4 12 4.375 15.875 C4.30806319 18.98198365 4.28677607 19.68454632 2.125 22.0625 C-2.38772172 23.41631652 -6.40216542 22.74101023 -11 22 C-11 21.34 -11 20.68 -11 20 C-11.66 20 -12.32 20 -13 20 C-12.67 18.68 -12.34 17.36 -12 16 C-10.88625 16.165 -9.7725 16.33 -8.625 16.5 C-5.27967967 17.0455458 -5.27967967 17.0455458 -3 17 C-2.67 16.34 -2.34 15.68 -2 15 C-3.36125 14.62875 -3.36125 14.62875 -4.75 14.25 C-8.19016768 12.92685858 -9.76529862 11.89683512 -12 9 C-12.875 6.4375 -12.875 6.4375 -13 4 C-9.85467538 -0.71798693 -5.33708804 -1.96629559 0 0 Z " fill="#757575" transform="translate(302,275)"/>
<path d="M0 0 C0.99 0.33 1.98 0.66 3 1 C3 6.28 3 11.56 3 17 C2.34 17.33 1.68 17.66 1 18 C1.66 18.66 2.32 19.32 3 20 C3.66 19.01 4.32 18.02 5 17 C7.32716 16.62599214 9.66117862 16.29235267 12 16 C12.66 15.34 13.32 14.68 14 14 C13.979375 14.7425 13.95875 15.485 13.9375 16.25 C13.99360008 18.71840343 14.35920404 20.63864164 15 23 C8.74473275 24.88838257 0.13626374 27.06813187 -6 24 C-5.01 13.605 -5.01 13.605 -4 3 C-3.01 3 -2.02 3 -1 3 C-0.67 2.01 -0.34 1.02 0 0 Z " fill="#18365E" transform="translate(211,241)"/>
<path d="M0 0 C0.33 0 0.66 0 1 0 C1 2.64 1 5.28 1 8 C1.92232422 7.89171875 1.92232422 7.89171875 2.86328125 7.78125 C4.07564453 7.64203125 4.07564453 7.64203125 5.3125 7.5 C6.11300781 7.4071875 6.91351563 7.314375 7.73828125 7.21875 C10 7 10 7 13 7 C13 8.32 13 9.64 13 11 C15.92879371 10.37240135 18.36095629 9.41377341 21 8 C19.8141763 11.37503669 18.72426311 13.64722731 16 16 C16.8971875 16.7734375 16.8971875 16.7734375 17.8125 17.5625 C20.5073536 20.56533687 21.55720619 23.24873609 23 27 C12.37075352 28.06801041 12.37075352 28.06801041 9.08984375 25.51171875 C7.31897455 23.01804579 6 21.10630411 6 18 C4.02 18 2.04 18 0 18 C0 17.34 0 16.68 0 16 C0.969375 15.731875 1.93875 15.46375 2.9375 15.1875 C3.948125 14.795625 4.95875 14.40375 6 14 C6.33 13.01 6.66 12.02 7 11 C7.66 10.67 8.32 10.34 9 10 C6.03 9.67 3.06 9.34 0 9 C0 6.03 0 3.06 0 0 Z " fill="#476186" transform="translate(283,238)"/>
<path d="M0 0 C1.3671875 1.5390625 1.3671875 1.5390625 2.875 3.625 C3.4009375 4.34945312 3.926875 5.07390625 4.46875 5.8203125 C6.36312 8.5168902 8.20400212 11.23692634 10 14 C7.36 14 4.72 14 2 14 C1.67 14.99 1.34 15.98 1 17 C-1.0625 17.6875 -1.0625 17.6875 -3 18 C-3 18.66 -3 19.32 -3 20 C-3.99 20.33 -4.98 20.66 -6 21 C-6.33 20.34 -6.66 19.68 -7 19 C-6.67 18.67 -6.34 18.34 -6 18 C-6.66 16.68 -7.32 15.36 -8 14 C-9.32 14.33 -10.64 14.66 -12 15 C-12.33 14.01 -12.66 13.02 -13 12 C-11.70703125 10.09765625 -11.70703125 10.09765625 -9.8125 8.0625 C-9.16539062 7.36253906 -8.51828125 6.66257813 -7.8515625 5.94140625 C-7.24054688 5.30074219 -6.62953125 4.66007813 -6 4 C-5.236875 3.175 -4.47375 2.35 -3.6875 1.5 C-2 0 -2 0 0 0 Z " fill="#67C7BB" transform="translate(353,210)"/>
<path d="M0 0 C0.99 0 1.98 0 3 0 C3.0270043 1.45823212 3.04639787 2.91660675 3.0625 4.375 C3.07410156 5.18710937 3.08570313 5.99921875 3.09765625 6.8359375 C3 9 3 9 2 11 C1.34 11 0.68 11 0 11 C0 11.66 0 12.32 0 13 C-0.66 13 -1.32 13 -2 13 C-2 13.66 -2 14.32 -2 15 C-4.3359375 16.7265625 -4.3359375 16.7265625 -7.375 18.625 C-8.87160156 19.57246094 -8.87160156 19.57246094 -10.3984375 20.5390625 C-13 22 -13 22 -15 22 C-14.01 18.535 -14.01 18.535 -13 15 C-16.3 15.33 -19.6 15.66 -23 16 C-20.80615731 13.80615731 -18.9261101 12.92996821 -16.125 11.625 C-12.36463238 9.79868965 -9.90547864 8.00924574 -7 5 C-5 4.33333333 -3 3.66666667 -1 3 C-0.67 2.01 -0.34 1.02 0 0 Z " fill="#60BFD4" transform="translate(383,258)"/>
<path d="M0 0 C2.3828125 -0.29296875 2.3828125 -0.29296875 5.125 -0.1875 C6.03507812 -0.16042969 6.94515625 -0.13335937 7.8828125 -0.10546875 C8.58148438 -0.07066406 9.28015625 -0.03585938 10 0 C10 0.33 10 0.66 10 1 C7.03 1 4.06 1 1 1 C1 2.65 1 4.3 1 6 C5.95 6 10.9 6 16 6 C16.33 8.97 16.66 11.94 17 15 C11.72 14.67 6.44 14.34 1 14 C1 15.65 1 17.3 1 19 C6.94 19 12.88 19 19 19 C19 21.64 19 24.28 19 27 C18.67 27 18.34 27 18 27 C18 24.69 18 22.38 18 20 C12.06 20 6.12 20 0 20 C-1 13 -1 13 0 11 C-1.32 10.67 -2.64 10.34 -4 10 C-2.99806563 6.20696275 -2.18975773 3.28463659 0 0 Z " fill="#465F81" transform="translate(251,238)"/>
<path d="M0 0 C1.32 0.33 2.64 0.66 4 1 C4.33 2.65 4.66 4.3 5 6 C5.78246094 5.98839844 6.56492187 5.97679687 7.37109375 5.96484375 C8.38300781 5.95582031 9.39492188 5.94679687 10.4375 5.9375 C11.44683594 5.92589844 12.45617187 5.91429687 13.49609375 5.90234375 C16 6 16 6 17 7 C17.08748207 8.92667507 17.10697334 10.85651861 17.09765625 12.78515625 C17.09443359 13.95498047 17.09121094 15.12480469 17.08789062 16.33007812 C17.07951172 17.56177734 17.07113281 18.79347656 17.0625 20.0625 C17.05798828 21.29806641 17.05347656 22.53363281 17.04882812 23.80664062 C17.03699608 26.87114117 17.02051173 29.93554721 17 33 C16.67 33 16.34 33 16 33 C15.34 28.38 14.68 23.76 14 19 C13.01 18.67 12.02 18.34 11 18 C11 17.34 11 16.68 11 16 C9.0745356 14.8509288 9.0745356 14.8509288 7 15 C6.01 14.67 5.02 14.34 4 14 C4 11.36 4 8.72 4 6 C3.34 6 2.68 6 2 6 C2 5.34 2 4.68 2 4 C1.01 4 0.02 4 -1 4 C-1 5.98 -1 7.96 -1 10 C-1.66 9.34 -2.32 8.68 -3 8 C-2.625 4.875 -2.625 4.875 -2 2 C-1.34 2 -0.68 2 0 2 C0 1.34 0 0.68 0 0 Z " fill="#6ABFB8" transform="translate(356,227)"/>
<path d="M0 0 C2.76276177 0.52268466 5.3260876 1.10869587 8 2 C9.86174608 12.61195263 9.86174608 12.61195263 7.8359375 15.875 C3.89850116 19.133568 0.28387553 20.13454892 -4.6875 20.0625 C-5.89986328 20.04896484 -5.89986328 20.04896484 -7.13671875 20.03515625 C-7.75160156 20.02355469 -8.36648437 20.01195312 -9 20 C-9 19.67 -9 19.34 -9 19 C-7.02 19 -5.04 19 -3 19 C-3 18.34 -3 17.68 -3 17 C-2.34 17 -1.68 17 -1 17 C-0.93209027 13.06123582 -0.89369186 9.56343312 -1.625 5.6875 C-2 3 -2 3 0 0 Z " fill="#223D64" transform="translate(177,246)"/>
<path d="M0 0 C0.33 0 0.66 0 1 0 C2.40027356 23.58238484 2.40027356 23.58238484 1 35 C-0.41493551 35.10884119 -1.83232943 35.18597617 -3.25 35.25 C-4.03890625 35.29640625 -4.8278125 35.3428125 -5.640625 35.390625 C-8.90646194 34.84992352 -9.91560635 33.52860869 -12 31 C-13.13445813 29.282701 -14.21877641 27.53120438 -15.25 25.75 C-15.77078125 24.85796875 -16.2915625 23.9659375 -16.828125 23.046875 C-17.21484375 22.37140625 -17.6015625 21.6959375 -18 21 C-16.02 21.66 -14.04 22.32 -12 23 C-11.67 24.65 -11.34 26.3 -11 28 C-9.35 28 -7.7 28 -6 28 C-6 27.34 -6 26.68 -6 26 C-5.360625 25.731875 -4.72125 25.46375 -4.0625 25.1875 C-1.66868314 24.11332248 -1.66868314 24.11332248 -1 21 C-0.95486717 18.93799387 -0.96131982 16.87463726 -1 14.8125 C-1.04527426 9.75310095 -0.78324918 4.99321349 0 0 Z " fill="#1D3A62" transform="translate(152,230)"/>
<path d="M0 0 C3.57849992 0.29820833 4.76226484 0.74245358 7.25 3.4375 C10.04142316 7.52494106 10.52726711 9.99096248 10 15 C7.22945596 17.3087867 4.52593616 18.34704886 1 19 C0.896875 18.34 0.79375 17.68 0.6875 17 C-0.19213564 13.16158991 -1.56969896 9.66903309 -3 6 C-1.68 4.68 -0.36 3.36 1 2 C0.67 1.34 0.34 0.68 0 0 Z " fill="#1B3866" transform="translate(295,231)"/>
<path d="M0 0 C1.32 0 2.64 0 4 0 C5.68583152 13.87569019 5.68583152 13.87569019 4 20 C1.7613519 22.73612546 0.49274224 22.93840722 -3 23.375 C-6.26843543 22.96644557 -7.61223142 22.20409407 -10 20 C-9.67 18.68 -9.34 17.36 -9 16 C-8.2575 16.185625 -7.515 16.37125 -6.75 16.5625 C-3.77159084 17.22052711 -3.77159084 17.22052711 0 16 C0 10.72 0 5.44 0 0 Z " fill="#595959" transform="translate(235,275)"/>
<path d="M0 0 C0.99 0 1.98 0 3 0 C3.66 0.99 4.32 1.98 5 3 C5.66 2.01 6.32 1.02 7 0 C7.33 0.66 7.66 1.32 8 2 C8.66 2 9.32 2 10 2 C13 7.625 13 7.625 13 11 C9.125 10.125 9.125 10.125 8 9 C8.04125 10.2375 8.0825 11.475 8.125 12.75 C8.13658291 16.01637962 7.8568702 18.2146947 6 21 C5.01 21 4.02 21 3 21 C1.18397483 25.53832753 1.18397483 25.53832753 2 30 C3.98 30 5.96 30 8 30 C7.34 30.99 6.68 31.98 6 33 C3.75 32.875 3.75 32.875 1 32 C-1.3125 28.9375 -1.3125 28.9375 -3 26 C-2.51789063 25.46890625 -2.03578125 24.9378125 -1.5390625 24.390625 C-0.90742188 23.68421875 -0.27578125 22.9778125 0.375 22.25 C1.00148438 21.55390625 1.62796875 20.8578125 2.2734375 20.140625 C4.56428217 17.30168626 4.56428217 17.30168626 6 14 C5.18210678 11.98380555 5.18210678 11.98380555 3.6875 10.125 C1.35748792 6.74394987 0.31284664 4.17128857 0 0 Z " fill="#59B5D1" transform="translate(310,252)"/>
<path d="M0 0 C4.14581887 -0.02886751 8.29161216 -0.04675327 12.4375 -0.0625 C14.21350586 -0.07506836 14.21350586 -0.07506836 16.02539062 -0.08789062 C17.15009766 -0.09111328 18.27480469 -0.09433594 19.43359375 -0.09765625 C20.47572021 -0.10289307 21.51784668 -0.10812988 22.59155273 -0.11352539 C25 0 25 0 26 1 C26.14115161 3.67058851 26.04247107 6.32432238 26 9 C25.01 8.67 24.02 8.34 23 8 C23.66 8 24.32 8 25 8 C25 7.01 25 6.02 25 5 C24.34 4.67 23.68 4.34 23 4 C22.67 3.67 22.34 3.34 22 3 C19.66055264 3.28730055 17.3260857 3.61936779 15 4 C15.33 4.99 15.66 5.98 16 7 C10.555 7.495 10.555 7.495 5 8 C4.34 9.65 3.68 11.3 3 13 C1 11 1 11 0.83984375 8.90625 C0.87207031 8.1121875 0.90429688 7.318125 0.9375 6.5 C1.1199046 3.11792042 1.1199046 3.11792042 0 0 Z " fill="#173762" transform="translate(244,230)"/>
<path d="M0 0 C-1.32 2.31 -2.64 4.62 -4 7 C-6.31 6.67 -8.62 6.34 -11 6 C-11 6.66 -11 7.32 -11 8 C-16.28 8 -21.56 8 -27 8 C-26.67 7.01 -26.34 6.02 -26 5 C-25.35933594 4.89042969 -24.71867187 4.78085937 -24.05859375 4.66796875 C-19.94764099 3.91439619 -16.06432409 3.18608902 -12.25 1.4375 C-7.86927573 -0.50012804 -4.60457595 -1.53485865 0 0 Z " fill="#45B2D1" transform="translate(372,273)"/>
<path d="M0 0 C1.22589844 0.15275391 1.22589844 0.15275391 2.4765625 0.30859375 C3.41628906 0.43427734 3.41628906 0.43427734 4.375 0.5625 C4.375 1.8825 4.375 3.2025 4.375 4.5625 C3.30958984 4.74425781 3.30958984 4.74425781 2.22265625 4.9296875 C1.30355469 5.09726562 0.38445312 5.26484375 -0.5625 5.4375 C-1.47902344 5.59992188 -2.39554688 5.76234375 -3.33984375 5.9296875 C-4.09394531 6.13851563 -4.84804687 6.34734375 -5.625 6.5625 C-6.77314997 8.85879994 -6.93269809 10.63948086 -7.1875 13.1875 C-7.27128906 14.00476563 -7.35507813 14.82203125 -7.44140625 15.6640625 C-7.50199219 16.29054688 -7.56257812 16.91703125 -7.625 17.5625 C-9.275 17.2325 -10.925 16.9025 -12.625 16.5625 C-13.11803103 12.53607995 -13.49492855 9.0204358 -11.359375 5.44140625 C-7.69400468 1.16217536 -5.75703748 -0.74019053 0 0 Z " fill="#6A6968" transform="translate(254.625,274.4375)"/>
<path d="M0 0 C0.99 0.33 1.98 0.66 3 1 C3.50038177 3.95856795 3.99566036 6.91773848 4.48046875 9.87890625 C4.77706792 11.66073132 5.0847743 13.44098189 5.42578125 15.21484375 C6.07763365 18.80395878 6.08561454 20.9329198 4 24 C3.34 23.67 2.68 23.34 2 23 C2 22.01 2 21.02 2 20 C0.68 20.33 -0.64 20.66 -2 21 C-2.33 19.02 -2.66 17.04 -3 15 C-2.34 15 -1.68 15 -1 15 C-1.01160156 14.00097656 -1.02320313 13.00195312 -1.03515625 11.97265625 C-1.04417969 10.68230469 -1.05320312 9.39195312 -1.0625 8.0625 C-1.07410156 6.77472656 -1.08570313 5.48695313 -1.09765625 4.16015625 C-1 1 -1 1 0 0 Z " fill="#50B5CA" transform="translate(311,232)"/>
<path d="M0 0 C3.3341659 2.73877913 4.86187213 6.64510642 6.75 10.4375 C4.81372231 10.54557131 2.87572244 10.6231225 0.9375 10.6875 C-0.68091797 10.75710938 -0.68091797 10.75710938 -2.33203125 10.828125 C-5.25 10.4375 -5.25 10.4375 -7.09375 8.59375 C-8.37507411 6.20425369 -8.87835813 4.11332147 -9.25 1.4375 C-2.95967742 -0.73991935 -2.95967742 -0.73991935 0 0 Z " fill="#18365F" transform="translate(299.25,254.5625)"/>
<path d="M0 0 C0.33 0 0.66 0 1 0 C1 2.33333333 1 4.66666667 1 7 C1.99 7.33 2.98 7.66 4 8 C3.34 6.35 2.68 4.7 2 3 C5.49611906 1.25194047 9.34535578 3.05249965 13 4 C11.02 4.66 9.04 5.32 7 6 C7 6.66 7 7.32 7 8 C5.33784732 9.33895632 3.67036393 10.67130142 2 12 C0.62631655 13.63356951 -0.71937515 15.2925002 -2 17 C-2.33 15.35 -2.66 13.7 -3 12 C-4.65 11.67 -6.3 11.34 -8 11 C-7.34 9.35 -6.68 7.7 -6 6 C-5.34 6 -4.68 6 -4 6 C-3.71125 5.38125 -3.4225 4.7625 -3.125 4.125 C-2 2 -2 2 0 0 Z " fill="#74C8C5" transform="translate(323,207)"/>
<path d="M0 0 C0.33 0 0.66 0 1 0 C1.74805717 7.02639415 2.13794954 13.93391809 2 21 C2.99 20.34 3.98 19.68 5 19 C5.66 19.33 6.32 19.66 7 20 C7.66 18.68 8.32 17.36 9 16 C9 16.66 9 17.32 9 18 C9.66 18.33 10.32 18.66 11 19 C10.67 21.64 10.34 24.28 10 27 C3.375 28.125 3.375 28.125 0 27 C0 18.09 0 9.18 0 0 Z " fill="#314C6C" transform="translate(274,238)"/>
<path d="M0 0 C2.3125 2.0625 2.3125 2.0625 4 4 C0.54320988 6.09876543 0.54320988 6.09876543 -2.0625 5.625 C-3.0215625 5.315625 -3.0215625 5.315625 -4 5 C-4.99 5 -5.98 5 -7 5 C-6.67 5.99 -6.34 6.98 -6 8 C-7.65 8.66 -9.3 9.32 -11 10 C-13 7 -13 7 -12.6875 4.9375 C-12 3 -12 3 -11 1 C-6.98779034 -0.73254508 -4.16412717 -1.53415212 0 0 Z " fill="#656865" transform="translate(302,275)"/>
<path d="M0 0 C0 1.98 0 3.96 0 6 C-0.33 6 -0.66 6 -1 6 C-1 4.35 -1 2.7 -1 1 C-3.31 1.33 -5.62 1.66 -8 2 C-8 11.57 -8 21.14 -8 31 C-7.01 31 -6.02 31 -5 31 C-5 29.68 -5 28.36 -5 27 C-3.35 27 -1.7 27 0 27 C0 29.31 0 31.62 0 34 C-6.15234375 34.87890625 -6.15234375 34.87890625 -8 35 C-9 34 -9 34 -9.11352539 30.76538086 C-9.11336631 29.33185874 -9.10767407 27.89833088 -9.09765625 26.46484375 C-9.0962413 25.71159317 -9.09482635 24.95834259 -9.09336853 24.18226624 C-9.08775376 21.7673044 -9.07519883 19.35243399 -9.0625 16.9375 C-9.0574869 15.30403779 -9.05292366 13.67057414 -9.04882812 12.03710938 C-9.03777954 8.02470415 -9.02050506 4.01236759 -9 0 C-3.375 -1.125 -3.375 -1.125 0 0 Z " fill="#3D516D" transform="translate(115,231)"/>
<path d="M0 0 C0.125 6.75 0.125 6.75 -1 9 C-1.66 9 -2.32 9 -3 9 C-3.33 7.68 -3.66 6.36 -4 5 C-4.5775 5.94875 -5.155 6.8975 -5.75 7.875 C-7.82816551 10.76134098 -8.75468075 11.84095741 -12 13 C-11.20555466 7.91554982 -10.14190033 1.79643254 -6.0625 -1.625 C-3.4021374 -2.10870229 -2.23529508 -1.43697541 0 0 Z " fill="#6EC2C5" transform="translate(321,219)"/>
<path d="M0 0 C1.33804687 0.17982422 1.33804687 0.17982422 2.703125 0.36328125 C3.37859375 0.47027344 4.0540625 0.57726562 4.75 0.6875 C4.42 2.0075 4.09 3.3275 3.75 4.6875 C1.44 5.0175 -0.87 5.3475 -3.25 5.6875 C-3.58 7.0075 -3.91 8.3275 -4.25 9.6875 C-5.57 10.0175 -6.89 10.3475 -8.25 10.6875 C-9.66441874 7.85866253 -9.56900332 5.81373255 -9.25 2.6875 C-6.20002356 -0.39769557 -4.2013663 -0.60809249 0 0 Z " fill="#173866" transform="translate(285.25,248.3125)"/>
<path d="M0 0 C3.3 0.99 6.6 1.98 10 3 C9.01 4.32 8.02 5.64 7 7 C6.83279508 9.87142955 6.83279508 9.87142955 7.6875 11.9375 C8 14 8 14 6.5625 16.25 C6.046875 16.8275 5.53125 17.405 5 18 C2.69 17.34 0.38 16.68 -2 16 C1.13349732 14.95550089 1.98968256 15.06576355 5 16 C5.33 14.68 5.66 13.36 6 12 C2.37 11.01 -1.26 10.02 -5 9 C-1 8 -1 8 2 8 C1.47731534 5.23723823 0.89130413 2.6739124 0 0 Z " fill="#486084" transform="translate(169,242)"/>
<path d="M0 0 C0.33 0 0.66 0 1 0 C1.33 10.23 1.66 20.46 2 31 C3.32 31.33 4.64 31.66 6 32 C6.66 30.35 7.32 28.7 8 27 C9.98 27.33 11.96 27.66 14 28 C13.01 30.475 13.01 30.475 12 33 C6.06 33.495 6.06 33.495 0 34 C0 22.78 0 11.56 0 0 Z " fill="#647A98" transform="translate(242,232)"/>
<path d="M0 0 C6.27 0 12.54 0 19 0 C19.33 0.99 19.66 1.98 20 3 C18.68 3 17.36 3 16 3 C15.67 4.32 15.34 5.64 15 7 C11.98968256 7.93423645 11.13349732 8.04449911 8 7 C7.67 5.35 7.34 3.7 7 2 C5.35 1.67 3.7 1.34 2 1 C1.67 2.98 1.34 4.96 1 7 C0.67 7 0.34 7 0 7 C0 4.69 0 2.38 0 0 Z " fill="#334A71" transform="translate(274,230)"/>
<path d="M0 0 C0.99 0.33 1.98 0.66 3 1 C2.67 3.97 2.34 6.94 2 10 C1.34 9.01 0.68 8.02 0 7 C-3.3 7.33 -6.6 7.66 -10 8 C-10.92844389 12.33273814 -10.92844389 15.66726186 -10 20 C-8.68 20 -7.36 20 -6 20 C-6 20.99 -6 21.98 -6 23 C-6.61875 23.144375 -7.2375 23.28875 -7.875 23.4375 C-10.03258322 23.93152225 -10.03258322 23.93152225 -12 25 C-14.4516129 10.90322581 -14.4516129 10.90322581 -12 6 C-9.71484375 5.5859375 -9.71484375 5.5859375 -6.9375 5.375 C-6.01839844 5.30023438 -5.09929687 5.22546875 -4.15234375 5.1484375 C-3.08693359 5.07496094 -3.08693359 5.07496094 -2 5 C-1.34 3.35 -0.68 1.7 0 0 Z " fill="#86CACD" transform="translate(342,227)"/>
<path d="M0 0 C1.65 0.33 3.3 0.66 5 1 C5 1.66 5 2.32 5 3 C5.99 3 6.98 3 8 3 C7.75 5.375 7.75 5.375 7 8 C5.25 9.375 5.25 9.375 3 10 C0.25 9.625 0.25 9.625 -2 9 C-2.6875 7.3125 -2.6875 7.3125 -3 5 C-1.5625 2.25 -1.5625 2.25 0 0 Z " fill="#42ADCF" transform="translate(313,273)"/>
<path d="M0 0 C0.33 0 0.66 0 1 0 C1.36076001 2.97850621 1.71390416 5.95756784 2.0625 8.9375 C2.16626953 9.78763672 2.27003906 10.63777344 2.37695312 11.51367188 C2.47041016 12.32255859 2.56386719 13.13144531 2.66015625 13.96484375 C2.74918213 14.7137085 2.83820801 15.46257324 2.92993164 16.23413086 C2.9530542 16.81686768 2.97617676 17.39960449 3 18 C2.67 18.33 2.34 18.66 2 19 C1.92741054 21.18639453 1.91626217 23.37500389 1.9375 25.5625 C1.94652344 26.76003906 1.95554687 27.95757812 1.96484375 29.19140625 C1.97644531 30.11824219 1.98804687 31.04507812 2 32 C4.31 32.33 6.62 32.66 9 33 C9 30.03 9 27.06 9 24 C9.33 24 9.66 24 10 24 C10 27.63 10 31.26 10 35 C6.7 34.67 3.4 34.34 0 34 C0 22.78 0 11.56 0 0 Z " fill="#687D94" transform="translate(121,231)"/>
<path d="M0 0 C0.99 0 1.98 0 3 0 C3 0.99 3 1.98 3 3 C4.32 3.66 5.64 4.32 7 5 C7 5.99 7 6.98 7 8 C7.99 8 8.98 8 10 8 C9.67 9.32 9.34 10.64 9 12 C6.03 12 3.06 12 0 12 C-1.28571429 3.42857143 -1.28571429 3.42857143 0 0 Z " fill="#56BAC2" transform="translate(331,236)"/>
<path d="M0 0 C1.64574566 -0.02688151 3.29161413 -0.04634123 4.9375 -0.0625 C5.85402344 -0.07410156 6.77054687 -0.08570313 7.71484375 -0.09765625 C10 0 10 0 11 1 C11.08748207 2.92667507 11.10697334 4.85651861 11.09765625 6.78515625 C11.09443359 7.95498047 11.09121094 9.12480469 11.08789062 10.33007812 C11.07951172 11.56177734 11.07113281 12.79347656 11.0625 14.0625 C11.05798828 15.29806641 11.05347656 16.53363281 11.04882812 17.80664062 C11.03699608 20.87114117 11.02051173 23.93554721 11 27 C10.67 27 10.34 27 10 27 C9.93941406 26.11957031 9.87882812 25.23914063 9.81640625 24.33203125 C9.69072266 22.58986328 9.69072266 22.58986328 9.5625 20.8125 C9.48128906 19.66394531 9.40007812 18.51539063 9.31640625 17.33203125 C9.07101943 14.09043219 9.07101943 14.09043219 8.4375 11.3125 C7.82449583 8.07233509 8.43166969 5.22053843 9 2 C8.01 2.33 7.02 2.66 6 3 C6 3.66 6 4.32 6 5 C4.35 5 2.7 5 1 5 C0.67 3.35 0.34 1.7 0 0 Z " fill="#7CC9C0" transform="translate(362,233)"/>
<path d="M0 0 C2.4375 0.375 2.4375 0.375 5 1 C5.33 1.66 5.66 2.32 6 3 C5.67 3.66 5.34 4.32 5 5 C5.66 5.33 6.32 5.66 7 6 C6.01 6.33 5.02 6.66 4 7 C4 8.32 4 9.64 4 11 C1.0280615 9.87548273 -1.33440687 8.77706209 -4 7 C-2.79618552 4.50638429 -1.54571278 2.31856917 0 0 Z " fill="#3B5778" transform="translate(160,254)"/>
<path d="M0 0 C0.33 0.66 0.66 1.32 1 2 C1.66 2.33 2.32 2.66 3 3 C5 5 5 5 5 8 C2.75 10.25 2.75 10.25 0 12 C-1.32 11.67 -2.64 11.34 -4 11 C-4 7.7 -4 4.4 -4 1 C-3.34 1.66 -2.68 2.32 -2 3 C-1.34 2.01 -0.68 1.02 0 0 Z " fill="#183761" transform="translate(299,238)"/>
<path d="M0 0 C0.33 1.65 0.66 3.3 1 5 C-2 7 -2 7 -5.1875 6.625 C-6.115625 6.41875 -7.04375 6.2125 -8 6 C-7.67 7.65 -7.34 9.3 -7 11 C-8.65 10.67 -10.3 10.34 -12 10 C-11.3015332 7.13961215 -10.49694657 4.54688826 -9 2 C-5.81739868 0.65995734 -3.43954958 0 0 0 Z " fill="#64C7BC" transform="translate(334,204)"/>
<path d="M0 0 C3.37462715 0.54723683 5.08235 1.0549 8 3 C7.690625 3.763125 7.38125 4.52625 7.0625 5.3125 C6.32106407 7.18789677 5.63771783 9.08684652 5 11 C3.948125 10.566875 3.948125 10.566875 2.875 10.125 C-0.05452503 8.97866412 -3.00921653 7.97374346 -6 7 C-6 6.67 -6 6.34 -6 6 C-3.03 5.34 -0.06 4.68 3 4 C3 3.01 3 2.02 3 1 C2.01 0.67 1.02 0.34 0 0 Z " fill="#364C73" transform="translate(176,231)"/>
<path d="M0 0 C0.99 0.33 1.98 0.66 3 1 C3 1.99 3 2.98 3 4 C3.66 4 4.32 4 5 4 C5.33 4.99 5.66 5.98 6 7 C5.67 7.66 5.34 8.32 5 9 C5.66 9 6.32 9 7 9 C7.02717692 11.06242617 7.0464758 13.12495703 7.0625 15.1875 C7.07410156 16.33605469 7.08570313 17.48460937 7.09765625 18.66796875 C7.01162672 21.60329619 6.62608296 24.14565327 6 27 C6 27.99 6 28.98 6 30 C5.34 29.67 4.68 29.34 4 29 C4.03480469 27.865625 4.06960938 26.73125 4.10546875 25.5625 C4.39507552 14.45292034 4.39507552 14.45292034 1 4 C0.63957584 2.67373332 0.29968254 1.3412976 0 0 Z " fill="#89CCC3" transform="translate(380,222)"/>
<path d="M0 0 C0.33 0.99 0.66 1.98 1 3 C3.50447516 4.21869929 3.50447516 4.21869929 6 5 C5.67 6.32 5.34 7.64 5 9 C2.36 9 -0.28 9 -3 9 C-3.66 7.68 -4.32 6.36 -5 5 C-4.34 5 -3.68 5 -3 5 C-2.5359375 4.0409375 -2.5359375 4.0409375 -2.0625 3.0625 C-1 1 -1 1 0 0 Z " fill="#162F5E" transform="translate(194,257)"/>
<path d="M0 0 C1.98 0.99 1.98 0.99 4 2 C4.02715383 3.74991334 4.04646551 5.49994945 4.0625 7.25 C4.07410156 8.22453125 4.08570313 9.1990625 4.09765625 10.203125 C4 13 4 13 3.5 14.93164062 C2.67952725 18.32570563 2.89763728 21.77887675 2.9375 25.25 C2.94201172 25.99507812 2.94652344 26.74015625 2.95117188 27.5078125 C2.96290754 29.3385764 2.9808415 31.16929873 3 33 C2.01 33.495 2.01 33.495 1 34 C0.67 22.78 0.34 11.56 0 0 Z " fill="#1C3050" transform="translate(242,230)"/>
<path d="M0 0 C2.01822917 0.06510417 4.03645833 0.13020833 6.0546875 0.1953125 C6.3846875 1.5153125 6.7146875 2.8353125 7.0546875 4.1953125 C5.61914725 4.70091158 4.1811673 5.1995874 2.7421875 5.6953125 C1.54142578 6.11296875 1.54142578 6.11296875 0.31640625 6.5390625 C-1.9453125 7.1953125 -1.9453125 7.1953125 -4.9453125 7.1953125 C-3.87057023 0.38861147 -3.87057023 0.38861147 0 0 Z " fill="#143C69" transform="translate(258.9453125,258.8046875)"/>
<path d="M0 0 C2.64 0.33 5.28 0.66 8 1 C8.33 1.99 8.66 2.98 9 4 C8.360625 4.61875 7.72125 5.2375 7.0625 5.875 C4.96116416 7.82597612 4.96116416 7.82597612 4 10 C2.35 9.67 0.7 9.34 -1 9 C-1 7.35 -1 5.7 -1 4 C-0.34 4 0.32 4 1 4 C0.67 2.68 0.34 1.36 0 0 Z " fill="#173265" transform="translate(226,233)"/>
<path d="M0 0 C0.99 0.33 1.98 0.66 3 1 C3.66666667 3.33333333 4.33333333 5.66666667 5 8 C5.99 8.33 6.98 8.66 8 9 C7.01 9.33 6.02 9.66 5 10 C4.67 10.66 4.34 11.32 4 12 C3.34 12 2.68 12 2 12 C1.01 12.33 0.02 12.66 -1 13 C-1 9 -1 9 0 8 C-0.66 8 -1.32 8 -2 8 C-1.33333333 5.33333333 -0.66666667 2.66666667 0 0 Z " fill="#73CACC" transform="translate(354,237)"/>
<path d="M0 0 C-0.639375 0.103125 -1.27875 0.20625 -1.9375 0.3125 C-2.618125 0.539375 -3.29875 0.76625 -4 1 C-4.33 1.99 -4.66 2.98 -5 4 C-6.65614657 4.38218767 -8.32457024 4.71395102 -10 5 C-10.33 4.67 -10.66 4.34 -11 4 C-11.66 5.65 -12.32 7.3 -13 9 C-13.33 9 -13.66 9 -14 9 C-14.33 11.31 -14.66 13.62 -15 16 C-15.33 16 -15.66 16 -16 16 C-16.05416188 14.39620659 -16.09286638 12.79188594 -16.125 11.1875 C-16.14820313 10.29417969 -16.17140625 9.40085938 -16.1953125 8.48046875 C-16 6 -16 6 -14 3 C-13.34 3 -12.68 3 -12 3 C-12 2.34 -12 1.68 -12 1 C-3.96428571 -1.27678571 -3.96428571 -1.27678571 0 0 Z " fill="#475C7D" transform="translate(174,230)"/>
<path d="M0 0 C0.33 0.99 0.66 1.98 1 3 C1.99 3.33 2.98 3.66 4 4 C3.3203125 5.953125 3.3203125 5.953125 2 8 C-0.3828125 8.609375 -0.3828125 8.609375 -3.125 8.75 C-4.03507812 8.80671875 -4.94515625 8.8634375 -5.8828125 8.921875 C-6.93082031 8.96054687 -6.93082031 8.96054687 -8 9 C-8.33 7.35 -8.66 5.7 -9 4 C-6.36 3.67 -3.72 3.34 -1 3 C-0.67 2.01 -0.34 1.02 0 0 Z " fill="#5F5F5F" transform="translate(283,289)"/>
<path d="M0 0 C0.66 0 1.32 0 2 0 C2.33 1.65 2.66 3.3 3 5 C3.99 4.67 4.98 4.34 6 4 C6.33 7.3 6.66 10.6 7 14 C6.01 14.495 6.01 14.495 5 15 C4.34 14.67 3.68 14.34 3 14 C3 13.01 3 12.02 3 11 C0.36 10.67 -2.28 10.34 -5 10 C-3 9 -1 8 1 7 C0.67 4.69 0.34 2.38 0 0 Z " fill="#4D4B48" transform="translate(281,278)"/>
<path d="M0 0 C2.875 0.6875 2.875 0.6875 6 2 C6.309375 2.825 6.61875 3.65 6.9375 4.5 C7.288125 5.325 7.63875 6.15 8 7 C11.53514293 8.37967524 11.53514293 8.37967524 15 9 C14.67 10.65 14.34 12.3 14 14 C10.2069843 13.48743031 8.48543387 12.891219 6 10 C4.8972419 8.29622532 3.83652743 6.56472471 2.8125 4.8125 C2.28269531 3.91144531 1.75289062 3.01039063 1.20703125 2.08203125 C0.80871094 1.39496094 0.41039062 0.70789063 0 0 Z " fill="#495D78" transform="translate(134,251)"/>
<path d="M0 0 C1.32 0 2.64 0 4 0 C4.33 3.63 4.66 7.26 5 11 C4.01 11.33 3.02 11.66 2 12 C1.34 12.66 0.68 13.32 0 14 C0 9.38 0 4.76 0 0 Z " fill="#5C5D5D" transform="translate(235,275)"/>
<path d="M0 0 C0.33 0.66 0.66 1.32 1 2 C0.0625 4.125 0.0625 4.125 -1 6 C-1.99 6 -2.98 6 -4 6 C-5.81602517 10.53832753 -5.81602517 10.53832753 -5 15 C-3.02 15 -1.04 15 1 15 C0.01 16.485 0.01 16.485 -1 18 C-3.25 17.875 -3.25 17.875 -6 17 C-8.3125 13.9375 -8.3125 13.9375 -10 11 C-8.89718873 9.72799029 -7.79269231 8.45744147 -6.6875 7.1875 C-6.07261719 6.47980469 -5.45773437 5.77210938 -4.82421875 5.04296875 C-3.26665665 3.29863261 -1.67341125 1.63221959 0 0 Z " fill="#8BC6D6" transform="translate(317,267)"/>
<path d="M0 0 C1.32 0 2.64 0 4 0 C3.979375 1.2375 3.95875 2.475 3.9375 3.75 C3.93233319 6.6640825 4.06984442 9.20953327 5 12 C2.525 11.01 2.525 11.01 0 10 C0 9.34 0 8.68 0 8 C-0.66 7.67 -1.32 7.34 -2 7 C-3.33333333 6.33333333 -4.66666667 5.66666667 -6 5 C-3.69 4.34 -1.38 3.68 1 3 C0.67 2.01 0.34 1.02 0 0 Z " fill="#69C8C2" transform="translate(367,235)"/>
<path d="M0 0 C4.14581887 -0.02886751 8.29161216 -0.04675327 12.4375 -0.0625 C14.21350586 -0.07506836 14.21350586 -0.07506836 16.02539062 -0.08789062 C17.15009766 -0.09111328 18.27480469 -0.09433594 19.43359375 -0.09765625 C20.47572021 -0.10289307 21.51784668 -0.10812988 22.59155273 -0.11352539 C25 0 25 0 26 1 C26.14115161 3.67058851 26.04247107 6.32432238 26 9 C25.01 8.67 24.02 8.34 23 8 C23.66 8 24.32 8 25 8 C25 7.01 25 6.02 25 5 C24.34 4.67 23.68 4.34 23 4 C22.67 3.67 22.34 3.34 22 3 C20.53624517 2.86750736 19.06676971 2.79678005 17.59765625 2.75390625 C16.26250977 2.70459961 16.26250977 2.70459961 14.90039062 2.65429688 C13.01248816 2.59322914 11.12446023 2.53592113 9.23632812 2.48242188 C8.34494141 2.44826172 7.45355469 2.41410156 6.53515625 2.37890625 C5.714104 2.3538501 4.89305176 2.32879395 4.04711914 2.30297852 C2 2 2 2 0 0 Z " fill="#4D5B75" transform="translate(244,230)"/>
<path d="M0 0 C0.99 0 1.98 0 3 0 C3 2.97 3 5.94 3 9 C2.67 8.34 2.34 7.68 2 7 C0.68 7.99 -0.64 8.98 -2 10 C-2.33 9.34 -2.66 8.68 -3 8 C-3.99 7.67 -4.98 7.34 -6 7 C-6 6.34 -6 5.68 -6 5 C-5.195625 4.731875 -4.39125 4.46375 -3.5625 4.1875 C-2.716875 3.795625 -1.87125 3.40375 -1 3 C-0.67 2.01 -0.34 1.02 0 0 Z " fill="#58BFC6" transform="translate(383,258)"/>
<path d="M0 0 C0.33 0.66 0.66 1.32 1 2 C3.99536737 3.13617383 5.97878489 2.97110486 9 2 C9 3.32 9 4.64 9 6 C8.34 6 7.68 6 7 6 C7 6.66 7 7.32 7 8 C6.34 8 5.68 8 5 8 C5 8.66 5 9.32 5 10 C4.34 10 3.68 10 3 10 C2.7525 9.21625 2.505 8.4325 2.25 7.625 C0.84610901 4.67682892 -0.00675737 4.0975223 -3 3 C-2.01 2.01 -1.02 1.02 0 0 Z " fill="#72C7CF" transform="translate(376,263)"/>
<path d="M0 0 C2.97 0.495 2.97 0.495 6 1 C-1.70470211 6.13646807 -10.16008724 5.01105648 -19 4 C-19 3.67 -19 3.34 -19 3 C-12.62694402 2.25492456 -6.41688675 1.89650183 0 2 C0 1.34 0 0.68 0 0 Z " fill="#83C5D7" transform="translate(361,279)"/>
<path d="M0 0 C0.33 0 0.66 0 1 0 C1.33 2.31 1.66 4.62 2 7 C-1.3 7.66 -4.6 8.32 -8 9 C-7.67 10.32 -7.34 11.64 -7 13 C-8.32 11.68 -9.64 10.36 -11 9 C-10.34 8.67 -9.68 8.34 -9 8 C-9 7.01 -9 6.02 -9 5 C-4.545 4.505 -4.545 4.505 0 4 C0 2.68 0 1.36 0 0 Z " fill="#6E6D6B" transform="translate(281,279)"/>
<path d="M0 0 C1.37562854 1.28965176 2.70766393 2.62689293 4 4 C4 4.66 4 5.32 4 6 C6.31 6.66 8.62 7.32 11 8 C11 8.33 11 8.66 11 9 C7.7 9 4.4 9 1 9 C1 8.34 1 7.68 1 7 C-0.32 6.34 -1.64 5.68 -3 5 C-3 4.01 -3 3.02 -3 2 C-2.34 2 -1.68 2 -1 2 C-0.67 1.34 -0.34 0.68 0 0 Z " fill="#898989" transform="translate(247,289)"/>
<path d="M0 0 C1.9375 0.5625 1.9375 0.5625 4 2 C5.23274001 6.66680146 5.21567946 9.69897516 3 14 C2.67 14 2.34 14 2 14 C1.896875 12.9275 1.79375 11.855 1.6875 10.75 C1.02599507 7.14179128 0.42516579 5.63604977 -2 3 C-1.34 2.01 -0.68 1.02 0 0 Z " fill="#5E5F5E" transform="translate(259,276)"/>
<path d="M0 0 C1.65 0 3.3 0 5 0 C5 2.31 5 4.62 5 7 C2.36 7.33 -0.28 7.66 -3 8 C-3 6.68 -3 5.36 -3 4 C-2.01 4 -1.02 4 0 4 C0 2.68 0 1.36 0 0 Z " fill="#295272" transform="translate(110,258)"/>
<path d="M0 0 C2.125 0.9375 2.125 0.9375 4 2 C4.125 8.75 4.125 8.75 3 11 C2.34 11 1.68 11 1 11 C0.690625 10.360625 0.38125 9.72125 0.0625 9.0625 C-0.8345163 7.06389179 -0.8345163 7.06389179 -2 6 C-2.04063832 4.33382885 -2.042721 2.66611905 -2 1 C-1.34 0.67 -0.68 0.34 0 0 Z " fill="#59BEBF" transform="translate(317,217)"/>
<path d="M0 0 C1.9375 0.625 1.9375 0.625 4 2 C4.75 5.125 4.75 5.125 5 8 C3.02 8 1.04 8 -1 8 C-1.625 5.6875 -1.625 5.6875 -2 3 C-1.34 2.01 -0.68 1.02 0 0 Z " fill="#494847" transform="translate(270,290)"/>
<path d="M0 0 C0.99 0 1.98 0 3 0 C3.70133599 1.57725347 4.385583 3.16211333 5.0625 4.75 C5.44535156 5.63171875 5.82820313 6.5134375 6.22265625 7.421875 C7.04600008 10.15256309 6.9773992 11.36901347 6 14 C2.84345952 9.41078616 0.42797202 5.70629354 0 0 Z " fill="#69B7CB" transform="translate(310,252)"/>
<path d="M0 0 C3.39352169 0.45246956 6.69503191 1.1102009 10 2 C8.02 2.66 6.04 3.32 4 4 C4 4.66 4 5.32 4 6 C2.03852126 7.38938077 0.03833424 8.7260411 -2 10 C-2.33 8.35 -2.66 6.7 -3 5 C-1.68 5.33 -0.36 5.66 1 6 C0.34 4.35 -0.32 2.7 -1 1 C-0.67 0.67 -0.34 0.34 0 0 Z " fill="#81CCC6" transform="translate(326,209)"/>
<path d="M0 0 C0.33 0 0.66 0 1 0 C1 2.97 1 5.94 1 9 C1.66 9 2.32 9 3 9 C3 10.65 3 12.3 3 14 C2.34 14 1.68 14 1 14 C1 15.65 1 17.3 1 19 C0.67 19 0.34 19 0 19 C0 17.35 0 15.7 0 14 C-0.99 13.67 -1.98 13.34 -3 13 C-2.34 12.34 -1.68 11.68 -1 11 C-0.79503927 8.85573717 -0.79503927 8.85573717 -0.9375 6.5 C-1.09818731 2.19637462 -1.09818731 2.19637462 0 0 Z " fill="#1D3556" transform="translate(113,244)"/>
<path d="M0 0 C0.66 0.66 1.32 1.32 2 2 C1.01 2 0.02 2 -1 2 C-0.67 2.99 -0.34 3.98 0 5 C1.32 4.67 2.64 4.34 4 4 C4 4.99 4 5.98 4 7 C1.29120665 8.35439668 -1.00933268 8.06501451 -4 8 C-4 6.02 -4 4.04 -4 2 C-2.68 1.34 -1.36 0.68 0 0 Z M5 3 C5.99 3.495 5.99 3.495 7 4 C6.01 4.495 6.01 4.495 5 5 C5 4.34 5 3.68 5 3 Z " fill="#6BBFC3" transform="translate(354,244)"/>
<path d="M0 0 C3.57849992 0.29820833 4.76226484 0.74245358 7.25 3.4375 C10.07349832 7.57190826 10.09283884 9.98670267 10 15 C9.67 14.01 9.34 13.02 9 12 C8.01 11.67 7.02 11.34 6 11 C6.020625 10.236875 6.04125 9.47375 6.0625 8.6875 C6.12942841 5.89814214 6.12942841 5.89814214 5 3 C3.67696283 2.6278958 2.34262065 2.29369827 1 2 C0.67 1.34 0.34 0.68 0 0 Z " fill="#647A8E" transform="translate(295,231)"/>
<path d="M0 0 C0.33 0 0.66 0 1 0 C1 5.28 1 10.56 1 16 C5.455 15.505 5.455 15.505 10 15 C9.67 15.66 9.34 16.32 9 17 C6.69 17 4.38 17 2 17 C1.34 18.32 0.68 19.64 0 21 C-0.99 19.68 -1.98 18.36 -3 17 C-2.01 17 -1.02 17 0 17 C0 11.39 0 5.78 0 0 Z " fill="#6C84A1" transform="translate(214,241)"/>
<path d="M0 0 C0.103125 0.61875 0.20625 1.2375 0.3125 1.875 C0.87525373 4.36526484 0.87525373 4.36526484 4 6 C4.8125 9.5 4.8125 9.5 5 13 C4.34 13.66 3.68 14.32 3 15 C3 12.36 3 9.72 3 7 C-0.33537489 8.11179163 -1.63707344 9.47411298 -4 12 C-4.66 11.67 -5.32 11.34 -6 11 C-5.47599609 10.18595703 -5.47599609 10.18595703 -4.94140625 9.35546875 C-4.25884766 8.28232422 -4.25884766 8.28232422 -3.5625 7.1875 C-3.11003906 6.47980469 -2.65757812 5.77210938 -2.19140625 5.04296875 C-0.85913661 2.91865448 -0.85913661 2.91865448 0 0 Z " fill="#7AC9C7" transform="translate(383,251)"/>
<path d="M0 0 C-0.33 0.99 -0.66 1.98 -1 3 C-1.99 2.34 -2.98 1.68 -4 1 C-2 0 -2 0 0 0 Z M-6 2 C-5.34 2 -4.68 2 -4 2 C-3.67 2.99 -3.34 3.98 -3 5 C-3.95298777 6.36733028 -4.95374591 7.70264493 -6 9 C-6 9.66 -6 10.32 -6 11 C-6.99 11 -7.98 11 -9 11 C-9 10.34 -9 9.68 -9 9 C-9.66 9 -10.32 9 -11 9 C-11 7.35 -11 5.7 -11 4 C-8.03 4.495 -8.03 4.495 -5 5 C-5.33 4.01 -5.66 3.02 -6 2 Z " fill="#163053" transform="translate(170,237)"/>
<path d="M0 0 C2.97 0.495 2.97 0.495 6 1 C6.12375 1.61875 6.2475 2.2375 6.375 2.875 C6.87197356 5.19120832 6.87197356 5.19120832 9 7 C3.58461538 7.36923077 3.58461538 7.36923077 0.625 5.5 C0.08875 5.005 -0.4475 4.51 -1 4 C-0.67 2.68 -0.34 1.36 0 0 Z " fill="#828282" transform="translate(226,291)"/>
<path d="M0 0 C2.3125 -0.25 2.3125 -0.25 5 0 C6.875 1.8125 6.875 1.8125 8 4 C7.67 4.99 7.34 5.98 7 7 C3.22454612 5.90931332 0.52956528 5.0916909 -2 2 C-1.34 2 -0.68 2 0 2 C0 1.34 0 0.68 0 0 Z " fill="#818280" transform="translate(293,283)"/>
<path d="M0 0 C0.33 0 0.66 0 1 0 C1.19812858 3.54115525 1.38159963 7.08292616 1.5625 10.625 C1.61857422 11.62402344 1.67464844 12.62304688 1.73242188 13.65234375 C1.97786206 18.59387286 2.12056885 23.13590113 1 28 C0.67 28 0.34 28 0 28 C-1.71881276 18.76138143 -1.45228197 9.25829757 0 0 Z " fill="#1D3352" transform="translate(152,230)"/>
<path d="M0 0 C1.79244141 0.01740234 1.79244141 0.01740234 3.62109375 0.03515625 C5.41740234 0.04869141 5.41740234 0.04869141 7.25 0.0625 C8.17683594 0.07410156 9.10367187 0.08570313 10.05859375 0.09765625 C10.05859375 0.42765625 10.05859375 0.75765625 10.05859375 1.09765625 C6.75859375 1.09765625 3.45859375 1.09765625 0.05859375 1.09765625 C-0.27140625 3.40765625 -0.60140625 5.71765625 -0.94140625 8.09765625 C-1.93140625 8.09765625 -2.92140625 8.09765625 -3.94140625 8.09765625 C-3.98382348 5.7647085 -3.98233562 3.43063058 -3.94140625 1.09765625 C-2.94140625 0.09765625 -2.94140625 0.09765625 0 0 Z " fill="#757574" transform="translate(271.94140625,274.90234375)"/>
<path d="M0 0 C2 3 2 3 1.9375 5.0625 C1 7 1 7 -1.5625 8.25 C-2.366875 8.4975 -3.17125 8.745 -4 9 C-5 7 -5 7 -5 4 C-2.5 1.8125 -2.5 1.8125 0 0 Z " fill="#18355B" transform="translate(236,243)"/>
<path d="M0 0 C2.475 0.495 2.475 0.495 5 1 C5.11335874 5.08091471 4.83581737 8.32836527 3 12 C2.01 12 1.02 12 0 12 C0.185625 10.7625 0.37125 9.525 0.5625 8.25 C0.94711223 5.23720423 1.0874594 2.89989173 0 0 Z " fill="#334C6C" transform="translate(227,242)"/>
<path d="M0 0 C2.31 0 4.62 0 7 0 C8 6.75 8 6.75 8 9 C7.34 9 6.68 9 6 9 C5.71125 8.360625 5.4225 7.72125 5.125 7.0625 C4.17176549 4.84793921 4.17176549 4.84793921 2 4 C2 3.01 2 2.02 2 1 C1.34 0.67 0.68 0.34 0 0 Z " fill="#6AC2C7" transform="translate(332,235)"/>
<path d="M0 0 C2.31 0.33 4.62 0.66 7 1 C7 2.32 7 3.64 7 5 C6.34 5 5.68 5 5 5 C5 5.66 5 6.32 5 7 C3.0625 6.3125 3.0625 6.3125 1 5 C0.25 2.375 0.25 2.375 0 0 Z " fill="#2E476F" transform="translate(192,230)"/>
<path d="M0 0 C0 1.65 0 3.3 0 5 C-4.29 5.66 -8.58 6.32 -13 7 C-10.77937607 4.77937607 -8.74829509 3.75815384 -5.9375 2.375 C-5.03902344 1.92898438 -4.14054687 1.48296875 -3.21484375 1.0234375 C-1 0 -1 0 0 0 Z " fill="#79C4D2" transform="translate(373,267)"/>
<path d="M0 0 C1.32 0 2.64 0 4 0 C4 0.99 4 1.98 4 3 C6.28705831 4.14352916 7.59264762 4.10334439 10.125 4.0625 C11.40375 4.041875 12.6825 4.02125 14 4 C14.33 4.66 14.66 5.32 15 6 C13.06372231 6.10807131 11.12572244 6.1856225 9.1875 6.25 C7.56908203 6.31960938 7.56908203 6.31960938 5.91796875 6.390625 C3 6 3 6 1.11328125 4.109375 C0 2 0 2 0 0 Z " fill="#3D5975" transform="translate(291,259)"/>
<path d="M0 0 C0 0.99 0 1.98 0 3 C-2.97 3 -5.94 3 -9 3 C-8.67 1.68 -8.34 0.36 -8 -1 C-4.59745511 -2.2151946 -3.06748874 -1.86240388 0 0 Z " fill="#5E5F5E" transform="translate(259,294)"/>
<path d="M0 0 C2.4375 0.375 2.4375 0.375 5 1 C5.33 1.66 5.66 2.32 6 3 C5.67 3.66 5.34 4.32 5 5 C5.66 5.33 6.32 5.66 7 6 C6.01 6.33 5.02 6.66 4 7 C4 8.32 4 9.64 4 11 C1.525 10.01 1.525 10.01 -1 9 C0.375 7.5 0.375 7.5 2 6 C2.66 6 3.32 6 4 6 C3.34 4.68 2.68 3.36 2 2 C1.34 2 0.68 2 0 2 C0 1.34 0 0.68 0 0 Z " fill="#546D8E" transform="translate(160,254)"/>
<path d="M0 0 C1.98 0.66 3.96 1.32 6 2 C6 3.98 6 5.96 6 8 C5.67 6.68 5.34 5.36 5 4 C1.60085025 5.13304992 0.94745549 6.12518475 -1 9 C-1.125 2.25 -1.125 2.25 0 0 Z " fill="#415979" transform="translate(179,246)"/>
<path d="M0 0 C0 0.99 0 1.98 0 3 C0.99 3 1.98 3 3 3 C3 4.32 3 5.64 3 7 C2.29875 6.71125 1.5975 6.4225 0.875 6.125 C-2.05452503 4.97866412 -5.00921653 3.97374346 -8 3 C-8 2.67 -8 2.34 -8 2 C-2.25 0 -2.25 0 0 0 Z " fill="#475A7B" transform="translate(178,235)"/>
<path d="M0 0 C1.32 0 2.64 0 4 0 C3.67 0.99 3.34 1.98 3 3 C3 3.33 3 3.66 3 4 C-0.20380017 6.13586678 -1.01939967 6.23132175 -4.6875 6.125 C-5.89986328 6.09792969 -5.89986328 6.09792969 -7.13671875 6.0703125 C-8.05904297 6.03550781 -8.05904297 6.03550781 -9 6 C-9 5.67 -9 5.34 -9 5 C-7.02 5 -5.04 5 -3 5 C-3 4.34 -3 3.68 -3 3 C-2.34 3 -1.68 3 -1 3 C-0.67 2.01 -0.34 1.02 0 0 Z " fill="#3B5479" transform="translate(177,260)"/>
<path d="M0 0 C2.31 0 4.62 0 7 0 C7 1.32 7 2.64 7 4 C6.401875 4.144375 5.80375 4.28875 5.1875 4.4375 C3.43849596 4.8872439 1.71322977 5.42892341 0 6 C-0.5625 4.0625 -0.5625 4.0625 -1 2 C-0.67 1.67 -0.34 1.34 0 1 C0 0.67 0 0.34 0 0 Z " fill="#15345E" transform="translate(214,232)"/>
<path d="M0 0 C0 0.99 0 1.98 0 3 C-0.804375 3.226875 -1.60875 3.45375 -2.4375 3.6875 C-3.283125 4.120625 -4.12875 4.55375 -5 5 C-5.89386164 7.54775306 -5.89386164 7.54775306 -6 10 C-6.66 9.34 -7.32 8.68 -8 8 C-7.64644564 5.73725212 -7.02455574 4.04911148 -6 2 C-4.02111039 1.27306096 -2.02045442 0.60183749 0 0 Z " fill="#777675" transform="translate(297,274)"/>
<path d="M0 0 C2.475 0.495 2.475 0.495 5 1 C5.33 2.65 5.66 4.3 6 6 C4.35 6 2.7 6 1 6 C0.67 4.02 0.34 2.04 0 0 Z " fill="#51BBCA" transform="translate(373,267)"/>
<path d="M0 0 C2.64 0.33 5.28 0.66 8 1 C8.33 1.99 8.66 2.98 9 4 C7.02 4.99 7.02 4.99 5 6 C3.2925002 4.71937515 1.62626404 3.38232443 0 2 C0 1.34 0 0.68 0 0 Z " fill="#142C59" transform="translate(226,233)"/>
<path d="M0 0 C3.59634744 3.49359465 6.83451967 7.11098131 10 11 C9.01 11 8.02 11 7 11 C6.34 10.01 5.68 9.02 5 8 C2.94074861 7.27617533 2.94074861 7.27617533 1 7 C0.67 4.69 0.34 2.38 0 0 Z " fill="#8ACFC5" transform="translate(353,212)"/>
<path d="M0 0 C0.33 0.99 0.66 1.98 1 3 C1.99 3.33 2.98 3.66 4 4 C3.34 5.32 2.68 6.64 2 8 C1.34 7.67 0.68 7.34 0 7 C0 6.67 0 6.34 0 6 C-2.97 5.67 -5.94 5.34 -9 5 C-9 4.67 -9 4.34 -9 4 C-6.36 3.67 -3.72 3.34 -1 3 C-0.67 2.01 -0.34 1.02 0 0 Z " fill="#949494" transform="translate(283,289)"/>
<path d="M0 0 C0.33 1.32 0.66 2.64 1 4 C-2.63 4.33 -6.26 4.66 -10 5 C-10 4.01 -10 3.02 -10 2 C-8.35 2.33 -6.7 2.66 -5 3 C-5 2.34 -5 1.68 -5 1 C-3.35 0.67 -1.7 0.34 0 0 Z " fill="#4E4E4E" transform="translate(258,275)"/>
<path d="M0 0 C0.66 0 1.32 0 2 0 C2 6.27 2 12.54 2 19 C1.67 19 1.34 19 1 19 C0.93941406 18.11957031 0.87882812 17.23914063 0.81640625 16.33203125 C0.73261719 15.17058594 0.64882813 14.00914062 0.5625 12.8125 C0.48128906 11.66394531 0.40007812 10.51539063 0.31640625 9.33203125 C0.06789637 6.06075248 0.06789637 6.06075248 -0.59765625 3.13671875 C-0.73042969 2.43160156 -0.86320312 1.72648438 -1 1 C-0.67 0.67 -0.34 0.34 0 0 Z " fill="#8ECDC9" transform="translate(371,241)"/>
<path d="M0 0 C0.99 0.33 1.98 0.66 3 1 C2.34 5.95 1.68 10.9 1 16 C-1.14680135 11.70639731 -1.12524159 10.35222258 -0.625 5.75 C-0.51414062 4.67234375 -0.40328125 3.5946875 -0.2890625 2.484375 C-0.19367188 1.66453125 -0.09828125 0.8446875 0 0 Z " fill="#84C7D0" transform="translate(316,227)"/>
<path d="M0 0 C0.99 0.33 1.98 0.66 3 1 C3 2.65 3 4.3 3 6 C1.68 6.33 0.36 6.66 -1 7 C-1.625 5.1875 -1.625 5.1875 -2 3 C-1.34 2.01 -0.68 1.02 0 0 Z " fill="#48B9C8" transform="translate(347,253)"/>
<path d="M0 0 C0.66 0 1.32 0 2 0 C2 0.66 2 1.32 2 2 C3.8871875 2.0309375 3.8871875 2.0309375 5.8125 2.0625 C6.52019531 2.07410156 7.22789062 2.08570313 7.95703125 2.09765625 C10.20305461 2.08263217 10.20305461 2.08263217 13 1 C12.67 2.32 12.34 3.64 12 5 C10.56138706 4.91253716 9.12402492 4.80434652 7.6875 4.6875 C6.88699219 4.62949219 6.08648437 4.57148438 5.26171875 4.51171875 C2.62550449 3.91526958 1.66173706 3.09196025 0 1 C0 0.67 0 0.34 0 0 Z " fill="#334B6F" transform="translate(159,246)"/>
<path d="M0 0 C1 3 1 3 1 6 C0.01 6.33 -0.98 6.66 -2 7 C-2.66 6.01 -3.32 5.02 -4 4 C-7.56769552 3.26393501 -7.56769552 3.26393501 -11 3 C-11 2.67 -11 2.34 -11 2 C-7.37 2 -3.74 2 0 2 C0 1.34 0 0.68 0 0 Z " fill="#67B9B9" transform="translate(342,232)"/>
<path d="M0 0 C0.66 0 1.32 0 2 0 C2 2.97 2 5.94 2 9 C0.68 9 -0.64 9 -2 9 C-1.34 6.03 -0.68 3.06 0 0 Z " fill="#585856" transform="translate(264,281)"/>
<path d="M0 0 C2.31 0.33 4.62 0.66 7 1 C7.33 1.99 7.66 2.98 8 4 C3.545 4.495 3.545 4.495 -1 5 C-1.33 4.34 -1.66 3.68 -2 3 C-1.34 2.34 -0.68 1.68 0 1 C0 0.67 0 0.34 0 0 Z " fill="#2C4565" transform="translate(216,235)"/>
<path d="M0 0 C2.125 0.9375 2.125 0.9375 4 2 C3.01 2 2.02 2 1 2 C1.33 2.99 1.66 3.98 2 5 C0.35 5.66 -1.3 6.32 -3 7 C-2.625 4.0625 -2.625 4.0625 -2 1 C-1.34 0.67 -0.68 0.34 0 0 Z " fill="#474645" transform="translate(294,278)"/>
<path d="M0 0 C0.99 0 1.98 0 3 0 C2.67 2.64 2.34 5.28 2 8 C3.65 8 5.3 8 7 8 C7 8.33 7 8.66 7 9 C4.36 9 1.72 9 -1 9 C-0.67 6.03 -0.34 3.06 0 0 Z " fill="#53B0BD" transform="translate(344,252)"/>
<path d="M0 0 C0.33 0 0.66 0 1 0 C1.33 1.98 1.66 3.96 2 6 C3.32 6 4.64 6 6 6 C6 6.99 6 7.98 6 9 C5.38125 9.144375 4.7625 9.28875 4.125 9.4375 C1.96741678 9.93152225 1.96741678 9.93152225 0 11 C-1.35015859 6.94952424 -0.62084998 4.2079832 0 0 Z " fill="#7BBFC8" transform="translate(330,241)"/>
<path d="M0 0 C4.95 1.98 4.95 1.98 10 4 C6.71023192 5.09658936 5.28696233 4.79953138 2 4 C1.67 4.99 1.34 5.98 1 7 C1 6.34 1 5.68 1 5 C0.34 4.67 -0.32 4.34 -1 4 C-0.67 2.68 -0.34 1.36 0 0 Z " fill="#6ABFD4" transform="translate(332,269)"/>
<path d="M0 0 C4.8 3.32307692 4.8 3.32307692 5.8125 6.75 C5.874375 7.4925 5.93625 8.235 6 9 C5.34 9 4.68 9 4 9 C3.67 8.01 3.34 7.02 3 6 C2.01 6.33 1.02 6.66 0 7 C0 4.66666667 0 2.33333333 0 0 Z " fill="#4C608B" transform="translate(298,254)"/>
<path d="M0 0 C1.33333333 1.33333333 2.66666667 2.66666667 4 4 C4.5775 4.53625 5.155 5.0725 5.75 5.625 C7 7 7 7 7 9 C5.68 8.67 4.36 8.34 3 8 C3 7.01 3 6.02 3 5 C1.68 4.67 0.36 4.34 -1 4 C-0.67 2.68 -0.34 1.36 0 0 Z " fill="#5E738E" transform="translate(138,241)"/>
<path d="M0 0 C3.3 0.99 6.6 1.98 10 3 C6.77208445 5.1519437 5.71599191 5.20086443 2 5 C1.34 3.35 0.68 1.7 0 0 Z " fill="#566B84" transform="translate(169,242)"/>
<path d="M0 0 C0.66 0 1.32 0 2 0 C2.33 0.99 2.66 1.98 3 3 C2.525625 3.350625 2.05125 3.70125 1.5625 4.0625 C-0.67873825 6.84163543 -0.67117658 9.5144717 -1 13 C-1.33 13 -1.66 13 -2 13 C-2.05416188 11.39620659 -2.09286638 9.79188594 -2.125 8.1875 C-2.14820313 7.29417969 -2.17140625 6.40085938 -2.1953125 5.48046875 C-2 3 -2 3 0 0 Z " fill="#4F6784" transform="translate(160,233)"/>
<path d="M0 0 C-0.99 1.485 -0.99 1.485 -2 3 C-2 2.34 -2 1.68 -2 1 C-2.99 1 -3.98 1 -5 1 C-5 1.66 -5 2.32 -5 3 C-6.65 2.67 -8.3 2.34 -10 2 C-10 1.34 -10 0.68 -10 0 C-6.7169902 -1.6415049 -3.57454967 -0.51888624 0 0 Z " fill="#656565" transform="translate(258,275)"/>
<path d="M0 0 C4.62 0 9.24 0 14 0 C14 0.33 14 0.66 14 1 C10.04 1 6.08 1 2 1 C2 2.65 2 4.3 2 6 C1.01 4.68 0.02 3.36 -1 2 C-0.67 1.34 -0.34 0.68 0 0 Z " fill="#1C3253" transform="translate(249,237)"/>
<path d="M0 0 C0.99 0.33 1.98 0.66 3 1 C3 1.99 3 2.98 3 4 C3.66 4 4.32 4 5 4 C6.09658936 7.28976808 5.79953138 8.71303767 5 12 C4 10 4 10 3 8 C2.195625 6.453125 2.195625 6.453125 1.375 4.875 C0 2 0 2 0 0 Z " fill="#9CDACD" transform="translate(380,222)"/>
<path d="M0 0 C3.40312738 1.05875074 6.01353231 2.00902154 9 4 C8.67 4.66 8.34 5.32 8 6 C5.03 5.505 5.03 5.505 2 5 C2 4.34 2 3.68 2 3 C1.34 3 0.68 3 0 3 C0 2.01 0 1.02 0 0 Z " fill="#97D6C6" transform="translate(368,201)"/>
<path d="M0 0 C0.99 0 1.98 0 3 0 C3 1.98 3 3.96 3 6 C0.36 6 -2.28 6 -5 6 C-5 5.67 -5 5.34 -5 5 C-3.35 4.67 -1.7 4.34 0 4 C0 2.68 0 1.36 0 0 Z " fill="#213863" transform="translate(265,259)"/>
<path d="M0 0 C1.65 0 3.3 0 5 0 C4.67 1.65 4.34 3.3 4 5 C2.35 4.67 0.7 4.34 -1 4 C-0.67 2.68 -0.34 1.36 0 0 Z " fill="#355073" transform="translate(144,260)"/>
<path d="M0 0 C0.66 0 1.32 0 2 0 C2 3.3 2 6.6 2 10 C1.01 9.67 0.02 9.34 -1 9 C-1.625 6.1875 -1.625 6.1875 -2 3 C-1.34 2.01 -0.68 1.02 0 0 Z " fill="#18345E" transform="translate(177,246)"/>
<path d="M0 0 C1.32 0.33 2.64 0.66 4 1 C4 3.64 4 6.28 4 9 C3.01 8.67 2.02 8.34 1 8 C1.66 8 2.32 8 3 8 C3 7.01 3 6.02 3 5 C2.34 4.67 1.68 4.34 1 4 C0.375 1.9375 0.375 1.9375 0 0 Z " fill="#627387" transform="translate(266,230)"/>
<path d="M0 0 C0 2.64 0 5.28 0 8 C-0.99 8 -1.98 8 -3 8 C-3 5.69 -3 3.38 -3 1 C-1 0 -1 0 0 0 Z " fill="#1D3563" transform="translate(110,232)"/>
<path d="M0 0 C1.32 0.66 2.64 1.32 4 2 C4 2.99 4 3.98 4 5 C2.02 5.99 2.02 5.99 0 7 C0 4.66666667 0 2.33333333 0 0 Z " fill="#66CDB6" transform="translate(383,217)"/>
<path d="M0 0 C0.66 0.33 1.32 0.66 2 1 C1.525625 1.598125 1.05125 2.19625 0.5625 2.8125 C-1.16465744 5.00382924 -1.16465744 5.00382924 -2 8 C-3.65 8 -5.3 8 -7 8 C-6.02133662 6.85373678 -5.04205413 5.70800212 -4.0625 4.5625 C-3.51722656 3.92441406 -2.97195313 3.28632813 -2.41015625 2.62890625 C-1.63204305 1.73008851 -0.84063472 0.84063472 0 0 Z " fill="#8CCFC5" transform="translate(351,210)"/>
<path d="M0 0 C0.33 1.32 0.66 2.64 1 4 C0.01 4.495 0.01 4.495 -1 5 C-1.66 4.67 -2.32 4.34 -3 4 C-3 3.01 -3 2.02 -3 1 C-4.32 0.67 -5.64 0.34 -7 0 C-3.86650268 -1.04449911 -3.01031744 -0.93423645 0 0 Z " fill="#5D5D5D" transform="translate(287,288)"/>
<path d="M0 0 C0.66 0.33 1.32 0.66 2 1 C2.99 0.67 3.98 0.34 5 0 C5 1.65 5 3.3 5 5 C4.34 5 3.68 5 3 5 C3 4.34 3 3.68 3 3 C2.01 3 1.02 3 0 3 C-0.33 3.66 -0.66 4.32 -1 5 C-1 1 -1 1 0 0 Z " fill="#4FB2BA" transform="translate(333,241)"/>
<path d="M0 0 C1.98 0.495 1.98 0.495 4 1 C4.33 3.31 4.66 5.62 5 8 C3 6 1 4 -1 2 C-0.67 1.34 -0.34 0.68 0 0 Z " fill="#2B486B" transform="translate(293,236)"/>
<path d="M0 0 C0.99 0 1.98 0 3 0 C1.68775452 3.93673644 0.08089673 6.22719294 -3 9 C-3 7.68 -3 6.36 -3 5 C-2.34 5 -1.68 5 -1 5 C-0.67 3.35 -0.34 1.7 0 0 Z " fill="#84C3D1" transform="translate(338,258)"/>
<path d="M0 0 C3.14958831 3.42346555 3.56179109 6.44262737 4 11 C3.34 11 2.68 11 2 11 C0.80712589 7.12315913 0 4.08378077 0 0 Z " fill="#8BD1C5" transform="translate(389,221)"/>
<path d="M0 0 C1.98 0 3.96 0 6 0 C6 0.99 6 1.98 6 3 C3.69 3 1.38 3 -1 3 C-0.67 2.01 -0.34 1.02 0 0 Z " fill="#606060" transform="translate(298,294)"/>
<path d="M0 0 C1.485 0.99 1.485 0.99 3 2 C3.1875 4.625 3.1875 4.625 3 7 C2.01 7.33 1.02 7.66 0 8 C0 5.36 0 2.72 0 0 Z " fill="#646363" transform="translate(283,276)"/>
<path d="M0 0 C0.99 0.33 1.98 0.66 3 1 C2.67 2.98 2.34 4.96 2 7 C0.68 5.68 -0.64 4.36 -2 3 C-1.34 2.01 -0.68 1.02 0 0 Z " fill="#8D8D8D" transform="translate(259,276)"/>
<path d="M0 0 C-0.66 1.32 -1.32 2.64 -2 4 C-3.65 4 -5.3 4 -7 4 C-7 3.01 -7 2.02 -7 1 C-4.53721199 -0.231394 -2.7204945 -0.07159196 0 0 Z " fill="#39ADCF" transform="translate(342,275)"/>
<path d="M0 0 C1.98 0.99 1.98 0.99 4 2 C3.34 3.65 2.68 5.3 2 7 C1.34 7 0.68 7 0 7 C0 4.69 0 2.38 0 0 Z " fill="#16345C" transform="translate(122,250)"/>
<path d="M0 0 C0.99 1.32 1.98 2.64 3 4 C2.01 4.33 1.02 4.66 0 5 C-0.33 5.66 -0.66 6.32 -1 7 C-1.66 6.34 -2.32 5.68 -3 5 C-3 4.01 -3 3.02 -3 2 C-2.34 2 -1.68 2 -1 2 C-0.67 1.34 -0.34 0.68 0 0 Z " fill="#969695" transform="translate(247,289)"/>
<path d="M0 0 C0.66 0.99 1.32 1.98 2 3 C1.125 6.6875 1.125 6.6875 0 10 C-0.33 10 -0.66 10 -1 10 C-1.125 2.25 -1.125 2.25 0 0 Z " fill="#8ACDCA" transform="translate(389,253)"/>
<path d="M0 0 C1.7074998 1.28062485 3.37373596 2.61767557 5 4 C5 4.66 5 5.32 5 6 C2.03 5.505 2.03 5.505 -1 5 C-0.67 3.35 -0.34 1.7 0 0 Z " fill="#546D84" transform="translate(132,233)"/>
<path d="M0 0 C3.68754757 0.49831724 5.60490662 1.10067643 8 4 C7.67 4.66 7.34 5.32 7 6 C6.34 5.67 5.68 5.34 5 5 C5 4.34 5 3.68 5 3 C4.360625 2.87625 3.72125 2.7525 3.0625 2.625 C2.381875 2.41875 1.70125 2.2125 1 2 C0.67 1.34 0.34 0.68 0 0 Z " fill="#556684" transform="translate(295,231)"/>
<path d="M0 0 C2.97 0.495 2.97 0.495 6 1 C6 1.66 6 2.32 6 3 C3.69 3.33 1.38 3.66 -1 4 C-0.67 2.68 -0.34 1.36 0 0 Z " fill="#979797" transform="translate(226,291)"/>
<path d="M0 0 C1.98 0 3.96 0 6 0 C4.71034824 1.37562854 3.37310707 2.70766393 2 4 C1.34 4 0.68 4 0 4 C0 2.68 0 1.36 0 0 Z " fill="#82C7D5" transform="translate(373,273)"/>
<path d="M0 0 C1 2 1 2 0.375 4.0625 C-1 6 -1 6 -3.625 6.75 C-4.800625 6.87375 -4.800625 6.87375 -6 7 C-4.02 4.69 -2.04 2.38 0 0 Z " fill="#95D4E0" transform="translate(317,267)"/>
<path d="M0 0 C2.475 0.99 2.475 0.99 5 2 C4.67 3.32 4.34 4.64 4 6 C3.01 5.67 2.02 5.34 1 5 C0.67 3.35 0.34 1.7 0 0 Z " fill="#0D203E" transform="translate(195,260)"/>
<path d="M0 0 C0.86625 0.3403125 0.86625 0.3403125 1.75 0.6875 C0 2.25 0 2.25 -2.25 3.6875 C-4.5 3.375 -4.5 3.375 -6.25 2.6875 C-2.80384615 -0.38942308 -2.80384615 -0.38942308 0 0 Z " fill="#92D2C9" transform="translate(334.25,201.3125)"/>
</svg>
